<?xml version="1.0" encoding="UTF-8" standalone="no"?>
<svg
   xmlns:dc="http://purl.org/dc/elements/1.1/"
   xmlns:cc="http://creativecommons.org/ns#"
   xmlns:rdf="http://www.w3.org/1999/02/22-rdf-syntax-ns#"
   xmlns:svg="http://www.w3.org/2000/svg"
   xmlns="http://www.w3.org/2000/svg"
   viewBox="0 0 137.01665 50.543621"
   height="50.543621"
   width="137.01665"
   version="1.1"
   id="svg4155">
  <metadata
     id="metadata4161">
    <rdf:RDF>
      <cc:Work
         rdf:about="">
        <dc:format>image/svg+xml</dc:format>
        <dc:type
           rdf:resource="http://purl.org/dc/dcmitype/StillImage" />
        <dc:title></dc:title>
      </cc:Work>
    </rdf:RDF>
  </metadata>
  <defs
     id="defs4159" />
  <g
     transform="matrix(0.28111429,0,0,0.28111429,-1.3478687,10.674858)"
     id="g4165">
    <path
       id="path4187"
       d="m 11.267281,141.40838 c -0.55,-0.18347 -2.2374999,-0.60651 -3.7499999,-0.9401 -3.0385579,-0.67017 -3.7615232,-2.55004 -1,-2.60022 1.6258118,-0.0296 1.6194912,-0.1307 -0.089068,-1.42537 -1.6820272,-1.27457 -1.4685486,-1.44624 2.5,-2.01036 2.3864869,-0.33924 26.1026149,-3.47387 52.7025059,-6.96585 41.818391,-5.48983 48.632331,-6.61795 50.350391,-8.336 2.26566,-2.26567 1.75192,-3.85264 -3.35852,-10.37452 -1.93889,-2.47438 -2.85531,-4.8013 -2.85531,-7.25 0,-2.703128 -0.41853,-3.606101 -1.67142,-3.606101 -0.91927,0 -3.55817,-1.969126 -5.864201,-4.375836 -3.378621,-3.526123 -5.410184,-4.684787 -10.462118,-5.966868 -3.448131,-0.875068 -6.511013,-1.832716 -6.806405,-2.128107 -0.295391,-0.295391 0.473542,-1.612827 1.708741,-2.927636 1.235198,-1.314808 1.848166,-2.63632 1.362152,-2.936694 C 83.548014,79.264345 71.814172,78.698102 57.958824,78.306402 44.103475,77.914701 32.767281,77.318122 32.767281,76.98067 c 0,-0.337451 2.5875,-2.165308 5.75,-4.061903 l 5.75,-3.448354 19,0.284883 c 11.229619,0.168375 22.067256,-0.198764 26.5,-0.897722 7.420873,-1.170129 7.581182,-1.2601 15.194809,-8.527908 7.31842,-6.985998 14.91302,-11.73294 22.91785,-14.324611 2.75711,-0.892652 4.04267,-2.123258 5.42847,-5.196413 0.9987,-2.214722 3.19397,-5.008096 4.87838,-6.207499 1.6844,-1.199403 4.29782,-3.587617 5.80758,-5.307144 3.81136,-4.340903 10.25568,-6.07886 16.28296,-4.391326 4.90405,1.373048 12.97405,7.796384 14.04861,11.182017 0.36896,1.162473 2.41919,3.776767 4.55608,5.809542 2.1369,2.032775 3.88526,4.17161 3.88526,4.752966 0,1.238431 -5.30084,3.252661 -8.56002,3.252661 -1.68031,0 -2.80417,1.12086 -4.37271,4.361043 -1.16113,2.398573 -1.84738,5.048414 -1.52499,5.888536 0.93544,2.437718 -1.48659,13.708021 -4.01599,18.687418 -4.38927,8.640737 -15.49529,17.144159 -26.05719,19.950911 -2.21699,0.589152 -4.91699,1.771303 -6,2.627013 -2.26882,1.79264 -3.04553,1.03002 8.34235,8.19099 3.6787,2.31326 7.23787,4.68119 7.90927,5.26208 0.86874,0.75163 15.28549,-0.82505 50,-5.46822 26.8286,-3.5884 51.02928,-6.92755 53.77928,-7.42031 5.32697,-0.95453 9.58904,0.51217 11.82561,4.06955 1.36266,2.16738 -1.48375,6.6572 -4.58826,7.23731 -1.23054,0.22995 -25.86235,3.43335 -54.73735,7.11868 -28.875,3.68534 -52.89233,7.06918 -53.37186,7.51966 -0.47952,0.45048 -1.43288,0.60376 -2.11857,0.34064 -0.6857,-0.26313 -1.48874,0.44704 -1.78453,1.57814 -0.66251,2.53346 -2.74536,2.69486 -3.38156,0.26203 -0.44379,-1.69704 -1.04983,-1.71775 -11.15638,-0.38115 -5.8779,0.77735 -10.81583,1.74608 -10.97316,2.15271 -0.15734,0.40664 -0.93629,1.59066 -1.731,2.63116 -1.2536,1.6413 -1.57771,1.69319 -2.44768,0.39181 -0.55151,-0.825 -1.12256,-1.83614 -1.269,-2.24698 -0.14644,-0.41084 -17.332675,1.50166 -38.191629,4.25 -30.940886,4.07672 -40.517408,4.98244 -52,4.91803 -7.741046,-0.0434 -14.52463,-0.22906 -15.07463,-0.41253 z M 130.64886,118.14986 c -0.50145,-3.17586 0.30776,-4.25 3.20175,-4.25 4.41651,0 3.26896,-2.0114 -2.85261,-5 -2.81642,-1.375 -5.56553,-3.46788 -6.10913,-4.65085 -1.66755,-3.62888 -13.12159,-4.433401 -13.12159,-0.92165 0,1.98786 8.30519,14.33721 10,14.86944 2.50694,0.78727 9.00787,0.75291 8.88158,-0.0469 z"
       style="fill:#c4af95" />
    <path
       id="path4185"
       d="m 7.5172811,140.21053 c -2.1378595,-0.55868 -2.3274138,-2.31067 -0.25,-2.31067 2.3721383,0 1.7439711,-1.82625 -0.75,-2.18045 -1.2375,-0.17575 21.3469999,-3.40605 50.1877769,-7.17844 44.714722,-5.84871 52.848452,-7.16252 55.226202,-8.92047 l 2.78843,-2.06157 -2.13536,-3.57954 c -1.17445,-1.96874 -3.18875,-4.72915 -4.47621,-6.13425 -1.54126,-1.68209 -2.34084,-3.7755 -2.34084,-6.12868 0,-3.044054 -0.45383,-3.761944 -3.06088,-4.841817 -1.68348,-0.697322 -4.178696,-2.733396 -5.544921,-4.524611 -2.016725,-2.644063 -3.791265,-3.577103 -9.432559,-4.959574 -7.07526,-1.733882 -7.313728,-2.060707 -4.173415,-5.71975 1.245699,-1.451469 1.26142,-1.811947 0.09789,-2.24473 -2.068118,-0.769257 -43.87693,-2.32785 -47.637683,-1.775889 -1.786637,0.262223 -3.248431,0.195104 -3.248431,-0.149152 0,-0.344256 2.55243,-2.25869 5.672067,-4.254298 l 5.672067,-3.628377 20.773452,0.20184 c 20.831726,0.202406 32.275158,-0.94683 34.382414,-3.452941 0.55,-0.654102 4.470899,-4.361652 8.713099,-8.239 5.9987,-5.482775 9.4982,-7.779588 15.74431,-10.333397 5.40201,-2.208691 8.2408,-3.944057 8.67145,-5.3009 0.77405,-2.438828 12.90797,-14.786133 16.27566,-16.561886 3.78664,-1.996661 11.07339,-1.640827 15.74875,0.769059 3.78953,1.953286 10.34673,8.561148 10.34673,10.426666 0,0.424686 1.8,2.572156 4,4.772156 2.2,2.2 4,4.428848 4,4.952996 0,0.977367 -6.18688,3.031441 -9.16079,3.041427 -2.65853,0.0089 -5.83921,7.789475 -5.83921,14.283789 0,15.677847 -10.01999,27.192644 -30.42579,34.964778 -3.25919,1.241361 -6.09186,2.767521 -6.29483,3.391481 -0.20296,0.62396 3.36364,3.41263 7.9258,6.19705 4.56215,2.78442 8.92852,5.62066 9.70303,6.30275 1.13012,0.99526 10.70805,0.004 48.5,-5.01833 25.90049,-3.44218 49.90067,-6.7615 53.33374,-7.37627 5.33701,-0.95572 6.75055,-0.87524 9.75,0.5551 2.84274,1.35561 3.50805,2.23371 3.50805,4.63003 0,1.62644 -0.5625,3.31782 -1.25,3.75861 -0.6875,0.4408 -25.775,4.09239 -55.75,8.11464 -29.975,4.02226 -55.36119,7.4351 -56.41376,7.5841 -1.05256,0.149 -2.27556,1.24897 -2.71777,2.44438 -1.01526,2.74449 -2.53809,2.78977 -3.39152,0.10085 -0.7156,-2.25466 -0.41501,-2.25961 -15.63165,0.25788 -5.45077,0.9018 -6.84897,1.52737 -7.72856,3.45786 -1.31385,2.88359 -2.76921,3.0272 -3.61674,0.35688 -0.34913,-1.1 -1.4425,-2 -2.42972,-2 -0.98722,0 -17.169271,2.025 -35.960122,4.5 -30.243333,3.98344 -36.199561,4.48668 -51.88767,4.384 -9.747368,-0.0638 -18.5099869,-0.3218 -19.4724869,-0.57333 z M 129.27952,118.89986 c 0.74176,0 1.49246,-1.0125 1.66821,-2.25 0.24111,-1.69769 1.14552,-2.37274 3.6844,-2.75 3.21862,-0.47827 3.28381,-0.57098 1.5,-2.13349 -1.02567,-0.89842 -3.70861,-2.55999 -5.9621,-3.69239 -2.25348,-1.1324 -4.85135,-3.20983 -5.77305,-4.61651 -1.45995,-2.22818 -2.38126,-2.55761 -7.15275,-2.55761 -4.79598,0 -5.47695,0.24673 -5.47695,1.98445 0,1.09145 1.9125,4.84719 4.25,8.3461 4.07761,6.10359 7.74225,8.89517 10.58179,8.06079 0.73248,-0.21524 1.93868,-0.39134 2.68045,-0.39134 z"
       style="fill:#9f9d9b" />
    <path
       id="path4183"
       d="m 7.5172811,140.21053 c -2.1378595,-0.55868 -2.3274138,-2.31067 -0.25,-2.31067 2.3721383,0 1.7439711,-1.82625 -0.75,-2.18045 -1.2375,-0.17575 21.3749999,-3.40843 50.2499999,-7.18373 43.114469,-5.63706 52.989729,-7.21214 55.239429,-8.81057 l 2.73942,-1.94638 -1.89211,-3.68943 c -1.04066,-2.02919 -3.0609,-4.78038 -4.48942,-6.11375 -1.90566,-1.77873 -2.59732,-3.42514 -2.59732,-6.18262 0,-2.838571 -0.47376,-3.90866 -1.93592,-4.372735 -1.06476,-0.337941 -3.877264,-2.523853 -6.250005,-4.857582 -3.376096,-3.320587 -5.564255,-4.521776 -10.064074,-5.524665 -3.1625,-0.704837 -5.75,-1.699249 -5.75,-2.209805 0,-0.510556 0.883586,-1.81187 1.963525,-2.891809 1.363359,-1.363359 1.613281,-2.179989 0.817653,-2.671714 C 83.918229,78.875116 73.247143,78.184233 60.834934,77.729323 30.131645,76.604041 32.156408,77.05759 39.274898,72.899859 c 5.987981,-3.497429 5.999362,-3.499572 15.492383,-2.917721 6.911354,0.423614 36.32994,-0.307371 41.823254,-1.039214 0.17779,-0.02369 4.086035,-3.646618 8.684995,-8.050961 7.76202,-7.433559 17.32167,-13.406835 24.43221,-15.266283 1.1195,-0.292756 2.50825,-1.775815 3.0861,-3.295686 1.70231,-4.477414 14.61771,-16.272773 18.6453,-17.028353 8.14409,-1.527842 17.7339,2.467387 21.16626,8.818119 0.91404,1.69119 3.65588,5.365344 6.09298,8.164787 l 4.43111,5.089895 -3.93111,1.185857 c -2.1621,0.652221 -4.8311,1.222127 -5.9311,1.266457 -2.7673,0.111522 -5.2204,6.768605 -5.77093,15.660833 -0.52286,8.445347 -4.76886,17.408611 -10.84859,22.901284 -4.34005,3.920975 -13.45255,8.780124 -19.53922,10.419095 -2.25956,0.608431 -4.68455,1.800602 -5.38887,2.649262 -1.62148,1.95376 -1.11126,2.43523 10.02085,9.45608 l 8.47323,5.34394 47.02677,-6.24997 c 25.86472,-3.43749 49.83564,-6.75298 53.26871,-7.36775 5.33701,-0.95572 6.75055,-0.87524 9.75,0.5551 2.84274,1.35561 3.50805,2.23371 3.50805,4.63003 0,1.62644 -0.5625,3.31782 -1.25,3.75861 -0.6875,0.4408 -25.775,4.09239 -55.75,8.11464 -29.975,4.02226 -55.34162,7.43366 -56.37026,7.58089 -1.02865,0.14724 -2.4253,1.30479 -3.10367,2.57235 l -1.2334,2.30464 -1.50227,-2.14479 c -1.41734,-2.02354 -1.89198,-2.08778 -8.39633,-1.13644 -13.6247,1.99279 -14.1279,2.14571 -15.26368,4.63846 -1.32634,2.91101 -2.71887,3.06851 -3.42014,0.38684 -0.29813,-1.14006 -1.36401,-2 -2.47896,-2 -1.07577,0 -17.330281,2.025 -36.121132,4.5 -30.243333,3.98344 -36.199561,4.48668 -51.88767,4.384 -9.747368,-0.0638 -18.5099869,-0.3218 -19.4724869,-0.57333 z M 129.34907,118.89986 c 0.78001,0 1.41821,-0.87961 1.41821,-1.95469 0,-1.44219 0.91765,-2.12684 3.5,-2.61129 1.925,-0.36113 3.49693,-0.94402 3.49317,-1.29531 -0.01,-0.91978 -6.09043,-4.81474 -8.75414,-5.60753 -1.24353,-0.3701 -2.94259,-1.99103 -3.77568,-3.60205 -1.41978,-2.74555 -1.89111,-2.92913 -7.52041,-2.92913 -4.21219,0 -6.16542,0.41619 -6.5405,1.39363 -0.29413,0.7665 1.56215,4.479 4.12507,8.25 4.50147,6.62333 8.53135,9.76527 11.30428,8.81349 0.73248,-0.25142 1.96998,-0.45712 2.75,-0.45712 z"
       style="fill:#fab90f" />
    <path
       id="path4181"
       d="m 7.5172811,140.21053 c -2.1378595,-0.55868 -2.3274138,-2.31067 -0.25,-2.31067 2.3721383,0 1.7439711,-1.82625 -0.75,-2.18045 -1.2375,-0.17575 21.3749999,-3.40843 50.2499999,-7.18373 43.114469,-5.63706 52.989729,-7.21214 55.239429,-8.81057 l 2.73942,-1.94638 -1.89211,-3.68943 c -1.04066,-2.02919 -3.0609,-4.78038 -4.48942,-6.11375 -1.90566,-1.77873 -2.59732,-3.42514 -2.59732,-6.18262 0,-2.838571 -0.47376,-3.90866 -1.93592,-4.372735 -1.06476,-0.337941 -3.877264,-2.523853 -6.250005,-4.857582 -3.376096,-3.320587 -5.564255,-4.521776 -10.064074,-5.524665 -3.1625,-0.704837 -5.75,-1.699249 -5.75,-2.209805 0,-0.510556 0.883586,-1.81187 1.963525,-2.891809 1.363359,-1.363359 1.613281,-2.179989 0.817653,-2.671714 C 83.918229,78.875116 73.247143,78.184233 60.834934,77.729323 30.131645,76.604041 32.156408,77.05759 39.274898,72.899859 c 5.987981,-3.497429 5.999362,-3.499572 15.492383,-2.917721 6.911354,0.423614 36.32994,-0.307371 41.823254,-1.039214 0.17779,-0.02369 4.086035,-3.646618 8.684995,-8.050961 7.76202,-7.433559 17.32167,-13.406835 24.43221,-15.266283 1.1195,-0.292756 2.50825,-1.775815 3.0861,-3.295686 1.70231,-4.477414 14.61771,-16.272773 18.6453,-17.028353 8.14409,-1.527842 17.7339,2.467387 21.16626,8.818119 0.91404,1.69119 3.65588,5.365344 6.09298,8.164787 l 4.43111,5.089895 -3.93111,1.185857 c -2.1621,0.652221 -4.8311,1.222127 -5.9311,1.266457 -2.7673,0.111522 -5.2204,6.768605 -5.77093,15.660833 -0.52286,8.445347 -4.76886,17.408611 -10.84859,22.901284 -4.34005,3.920975 -13.45255,8.780124 -19.53922,10.419095 -2.25956,0.608431 -4.68455,1.800602 -5.38887,2.649262 -1.62148,1.95376 -1.11126,2.43523 10.02085,9.45608 l 8.47323,5.34394 47.02677,-6.24997 c 25.86472,-3.43749 49.83564,-6.75298 53.26871,-7.36775 5.33701,-0.95572 6.75055,-0.87524 9.75,0.5551 2.84274,1.35561 3.50805,2.23371 3.50805,4.63003 0,1.62644 -0.5625,3.31782 -1.25,3.75861 -0.6875,0.4408 -25.775,4.09239 -55.75,8.11464 -29.975,4.02226 -55.34162,7.43366 -56.37026,7.58089 -1.02865,0.14724 -2.4253,1.30479 -3.10367,2.57235 l -1.2334,2.30464 -1.50227,-2.14479 c -1.41734,-2.02354 -1.89198,-2.08778 -8.39633,-1.13644 -13.6247,1.99279 -14.1279,2.14571 -15.26368,4.63846 -1.32634,2.91101 -2.71887,3.06851 -3.42014,0.38684 -0.29813,-1.14006 -1.36401,-2 -2.47896,-2 -1.07577,0 -17.330281,2.025 -36.121132,4.5 -30.243333,3.98344 -36.199561,4.48668 -51.88767,4.384 -9.747368,-0.0638 -18.5099869,-0.3218 -19.4724869,-0.57333 z M 129.34907,118.89986 c 0.78001,0 1.41821,-0.87961 1.41821,-1.95469 0,-1.44219 0.91765,-2.12684 3.5,-2.61129 1.925,-0.36113 3.49693,-0.94402 3.49317,-1.29531 -0.01,-0.91978 -6.09043,-4.81474 -8.75414,-5.60753 -1.24353,-0.3701 -2.94259,-1.99103 -3.77568,-3.60205 -1.41978,-2.74555 -1.89111,-2.92913 -7.52041,-2.92913 -4.21219,0 -6.16542,0.41619 -6.5405,1.39363 -0.29413,0.7665 1.56215,4.479 4.12507,8.25 4.50147,6.62333 8.53135,9.76527 11.30428,8.81349 0.73248,-0.25142 1.96998,-0.45712 2.75,-0.45712 z m 4.10283,-27.435449 c 3.74846,-0.789496 10.41538,-2.578603 14.81538,-3.975792 7.39264,-2.347482 8.24121,-2.902799 11.17713,-7.314552 3.41691,-5.134526 5.35423,-10.965167 5.24122,-15.774208 l -0.0705,-3 -1.34784,3.5 -1.34784,3.5 -0.0761,-5.25 c -0.0418,-2.8875 -0.47266,-5.25 -0.95737,-5.25 -0.4847,0 -1.48738,2.1375 -2.22817,4.75 l -1.3469,4.75 -0.32626,-5.31284 c -0.44576,-7.258859 -2.35741,-6.646399 -8.04376,2.577085 -2.46316,3.995334 -4.61453,7.12818 -4.78083,6.961881 -0.1663,-0.1663 0.56958,-3.66021 1.63529,-7.764245 2.40904,-9.277206 2.42093,-8.854063 -0.27808,-9.889556 -1.76854,-0.678513 -2.83845,-0.310613 -5,1.719315 -2.7593,2.591277 -3.6213,1.704912 -1.7473,-1.796693 1.5172,-2.834901 -0.28199,-3.286456 -6.1506,-1.543665 -5.63011,1.671963 -6.83838,1.442043 -4.87216,-0.927116 1.91694,-2.309762 -0.21503,-1.944617 -6.78036,1.161283 -3.9229,1.855827 -9.23286,6.118188 -17.18808,13.797057 -6.331314,6.111384 -13.198989,12.381342 -15.261489,13.93324 -2.0625,1.551897 -3.75,3.14635 -3.75,3.543228 0,0.619036 5.271529,2.017287 13.77107,3.65272 2.820819,0.542767 24.825659,-4.313183 28.228929,-6.22946 1.375,-0.77422 3.26592,-1.948533 4.20204,-2.609584 0.93612,-0.661051 2.03036,-0.873586 2.43164,-0.4723 1.30309,1.303088 -5.76079,7.509819 -11.25012,9.885002 -2.94219,1.273056 -5.35711,2.877148 -5.36649,3.564648 -0.0234,1.715285 8.07063,1.625229 16.66755,-0.185448 z M 91.842967,74.23973 c 2.000951,-2.195585 2.098019,-2.542391 0.555846,-1.985924 -1.027658,0.370812 -12.277658,0.730298 -25,0.798857 -14.784719,0.07967 -21.507746,0.408688 -18.631532,0.911801 2.475,0.432932 10.125,0.846438 17,0.918902 6.875,0.07246 14.3,0.504069 16.5,0.959124 6.362299,1.315995 7.015278,1.206701 9.575686,-1.60276 z"
       style="fill:#a98964" />
    <path
       id="path4179"
       d="m 7.7672811,139.88921 -2.5,-0.81129 2.25,-0.70566 c 2.6590949,-0.83397 2.9445109,-2.192 0.5573116,-2.65173 -0.9309786,-0.17929 21.3573963,-3.34117 49.5297233,-7.0264 43.886564,-5.74081 51.646284,-7.00224 54.182114,-8.80791 l 2.9597,-2.10749 -1.89211,-3.68943 c -1.04066,-2.02919 -3.0609,-4.78038 -4.48942,-6.11375 -1.90566,-1.77873 -2.59732,-3.42514 -2.59732,-6.18262 0,-2.838571 -0.47376,-3.90866 -1.93592,-4.372735 -1.06476,-0.337941 -3.877264,-2.523853 -6.250005,-4.857582 -3.376096,-3.320587 -5.564255,-4.521776 -10.064074,-5.524665 -3.1625,-0.704837 -5.75,-1.699249 -5.75,-2.209805 0,-0.510556 0.883586,-1.81187 1.963525,-2.891809 1.363359,-1.363359 1.613281,-2.179989 0.817653,-2.671714 C 83.918229,78.875116 73.247143,78.184233 60.834934,77.729323 30.131645,76.604041 32.156408,77.05759 39.274898,72.899859 c 5.987981,-3.497429 5.999362,-3.499572 15.492383,-2.917721 6.911354,0.423614 36.32994,-0.307371 41.823254,-1.039214 0.17779,-0.02369 4.086035,-3.646618 8.684995,-8.050961 7.76202,-7.433559 17.32167,-13.406835 24.43221,-15.266283 1.1195,-0.292756 2.50825,-1.775815 3.0861,-3.295686 1.70231,-4.477414 14.61771,-16.272773 18.6453,-17.028353 8.14409,-1.527842 17.7339,2.467387 21.16626,8.818119 0.91404,1.69119 3.65588,5.365344 6.09298,8.164787 l 4.43111,5.089895 -3.93111,1.185857 c -2.1621,0.652221 -4.8311,1.222127 -5.9311,1.266457 -2.7673,0.111522 -5.2204,6.768605 -5.77093,15.660833 -0.52286,8.445347 -4.76886,17.408611 -10.84859,22.901284 -4.34005,3.920975 -13.45255,8.780124 -19.53922,10.419095 -2.25956,0.608431 -4.71456,1.836772 -5.45558,2.729632 -1.56381,1.88429 -1.81598,1.65345 10.63899,9.73876 l 8.02466,5.20932 46.97534,-6.22354 c 25.83643,-3.42295 49.86374,-6.76621 53.39401,-7.42947 5.71018,-1.07282 6.7864,-1.00791 9.75,0.5881 2.21311,1.19184 3.33132,2.52831 3.33132,3.98157 0,2.6303 -2.92334,5.50324 -5.57874,5.48256 -4.67163,-0.0364 -104.10622,13.23378 -105.71194,14.1079 -0.98487,0.53615 -2.201,0.72122 -2.70251,0.41127 -0.50152,-0.30995 -1.54013,0.63557 -2.30803,2.10117 l -1.39619,2.66472 -1.56999,-2.24148 c -1.53017,-2.18462 -1.76863,-2.21125 -9.4013,-1.04993 -4.30721,0.65534 -8.90418,1.30277 -10.21548,1.43871 -1.40923,0.1461 -2.95576,1.33808 -3.78194,2.91489 -1.74991,3.33981 -2.93612,3.38865 -3.74789,0.15429 -0.49435,-1.96963 -1.11278,-2.40592 -2.85841,-2.01651 -1.22517,0.2733 -17.840445,2.52934 -36.922838,5.01342 -29.634941,3.85778 -37.073312,4.50197 -51,4.41683 -8.967607,-0.0548 -17.4297409,-0.46476 -18.8047409,-0.91097 z M 129.18549,119.29287 c 0.86999,-0.33384 1.58179,-1.43845 1.58179,-2.45469 0,-1.31992 0.99974,-2.03525 3.5,-2.5043 1.925,-0.36113 3.49693,-0.94402 3.49317,-1.29531 -0.01,-0.91978 -6.09043,-4.81474 -8.75414,-5.60753 -1.24353,-0.3701 -2.94259,-1.99103 -3.77568,-3.60205 -1.41978,-2.74555 -1.89111,-2.92913 -7.52041,-2.92913 -4.21219,0 -6.16542,0.41619 -6.5405,1.39363 -0.76387,1.99063 8.27308,14.8742 11.44124,16.31127 3.07236,1.3936 4.37952,1.53042 6.57453,0.68811 z m 4.26641,-27.828459 c 3.74846,-0.789496 10.41538,-2.578603 14.81538,-3.975792 7.39264,-2.347482 8.24121,-2.902799 11.17713,-7.314552 3.41691,-5.134526 5.35423,-10.965167 5.24122,-15.774208 l -0.0705,-3 -1.34784,3.5 -1.34784,3.5 -0.0761,-5.25 c -0.0418,-2.8875 -0.47266,-5.25 -0.95737,-5.25 -0.4847,0 -1.48738,2.1375 -2.22817,4.75 l -1.3469,4.75 -0.32626,-5.31284 c -0.44576,-7.258859 -2.35741,-6.646399 -8.04376,2.577085 -2.46316,3.995334 -4.61453,7.12818 -4.78083,6.961881 -0.1663,-0.1663 0.56958,-3.66021 1.63529,-7.764245 2.40904,-9.277206 2.42093,-8.854063 -0.27808,-9.889556 -1.76854,-0.678513 -2.83845,-0.310613 -5,1.719315 -2.7593,2.591277 -3.6213,1.704912 -1.7473,-1.796693 1.5172,-2.834901 -0.28199,-3.286456 -6.1506,-1.543665 -5.63011,1.671963 -6.83838,1.442043 -4.87216,-0.927116 1.91694,-2.309762 -0.21503,-1.944617 -6.78036,1.161283 -3.9229,1.855827 -9.23286,6.118188 -17.18808,13.797057 -6.331314,6.111384 -13.198989,12.381342 -15.261489,13.93324 -2.0625,1.551897 -3.75,3.14635 -3.75,3.543228 0,0.619036 5.271529,2.017287 13.77107,3.65272 2.820819,0.542767 24.825659,-4.313183 28.228929,-6.22946 1.375,-0.77422 3.26592,-1.948533 4.20204,-2.609584 0.93612,-0.661051 2.03036,-0.873586 2.43164,-0.4723 1.30309,1.303088 -5.76079,7.509819 -11.25012,9.885002 -2.94219,1.273056 -5.35711,2.877148 -5.36649,3.564648 -0.0234,1.715285 8.07063,1.625229 16.66755,-0.185448 z M 91.842967,74.23973 c 2.000951,-2.195585 2.098019,-2.542391 0.555846,-1.985924 -1.027658,0.370812 -12.277658,0.730298 -25,0.798857 -14.784719,0.07967 -21.507746,0.408688 -18.631532,0.911801 2.475,0.432932 10.125,0.846438 17,0.918902 6.875,0.07246 14.3,0.504069 16.5,0.959124 6.362299,1.315995 7.015278,1.206701 9.575686,-1.60276 z"
       style="fill:#f1771e" />
    <path
       id="path4177"
       d="m 7.7672811,139.88921 -2.5,-0.81129 2.25,-0.70566 c 2.6590949,-0.83397 2.9445109,-2.192 0.5573116,-2.65173 -0.9309786,-0.17929 21.3573963,-3.34117 49.5297233,-7.0264 43.886564,-5.74081 51.646284,-7.00224 54.182114,-8.80791 l 2.9597,-2.10749 -1.89211,-3.68943 c -1.04066,-2.02919 -3.0609,-4.78038 -4.48942,-6.11375 -1.90566,-1.77873 -2.59732,-3.42514 -2.59732,-6.18262 0,-2.838571 -0.47376,-3.90866 -1.93592,-4.372735 -1.06476,-0.337941 -3.877264,-2.523853 -6.250005,-4.857582 -3.376096,-3.320587 -5.564255,-4.521776 -10.064074,-5.524665 -3.1625,-0.704837 -5.75,-1.699249 -5.75,-2.209805 0,-0.510556 0.883586,-1.81187 1.963525,-2.891809 1.363359,-1.363359 1.613281,-2.179989 0.817653,-2.671714 C 83.918229,78.875116 73.247143,78.184233 60.834934,77.729323 30.131645,76.604041 32.156408,77.05759 39.274898,72.899859 c 5.987981,-3.497429 5.999362,-3.499572 15.492383,-2.917721 6.911354,0.423614 36.32994,-0.307371 41.823254,-1.039214 0.17779,-0.02369 4.086035,-3.646618 8.684995,-8.050961 7.76202,-7.433559 17.32167,-13.406835 24.43221,-15.266283 1.1195,-0.292756 2.50825,-1.775815 3.0861,-3.295686 1.70231,-4.477414 14.61771,-16.272773 18.6453,-17.028353 8.14409,-1.527842 17.7339,2.467387 21.16626,8.818119 0.91404,1.69119 3.65588,5.365344 6.09298,8.164787 l 4.43111,5.089895 -3.93111,1.185857 c -2.1621,0.652221 -4.8311,1.222127 -5.9311,1.266457 -2.7673,0.111522 -5.2204,6.768605 -5.77093,15.660833 -0.52286,8.445347 -4.76886,17.408611 -10.84859,22.901284 -4.34005,3.920975 -13.45255,8.780124 -19.53922,10.419095 -2.25956,0.608431 -4.71456,1.836772 -5.45558,2.729632 -1.56381,1.88429 -1.81598,1.65345 10.63899,9.73876 l 8.02466,5.20932 46.97534,-6.22354 c 25.83643,-3.42295 49.86374,-6.76621 53.39401,-7.42947 5.71018,-1.07282 6.7864,-1.00791 9.75,0.5881 2.21311,1.19184 3.33132,2.52831 3.33132,3.98157 0,2.6303 -2.92334,5.50324 -5.57874,5.48256 -4.67163,-0.0364 -104.10622,13.23378 -105.71194,14.1079 -0.98487,0.53615 -2.201,0.72122 -2.70251,0.41127 -0.50152,-0.30995 -1.54013,0.63557 -2.30803,2.10117 l -1.39619,2.66472 -1.56999,-2.24148 c -1.53017,-2.18462 -1.76863,-2.21125 -9.4013,-1.04993 -4.30721,0.65534 -8.90418,1.30277 -10.21548,1.43871 -1.40923,0.1461 -2.95576,1.33808 -3.78194,2.91489 -1.74991,3.33981 -2.93612,3.38865 -3.74789,0.15429 -0.49435,-1.96963 -1.11278,-2.40592 -2.85841,-2.01651 -1.22517,0.2733 -17.840445,2.52934 -36.922838,5.01342 -29.634941,3.85778 -37.073312,4.50197 -51,4.41683 -8.967607,-0.0548 -17.4297409,-0.46476 -18.8047409,-0.91097 z M 121.9674,122.89986 c 0.59367,0 1.69882,0.7875 2.45589,1.75 1.20129,1.52725 1.2296,1.40631 0.2224,-0.95022 -0.63635,-1.48889 -2.43807,-3.14783 -4.01625,-3.69799 -1.57419,-0.54876 -2.86905,-1.58366 -2.87747,-2.29977 -0.0111,-0.94359 -0.27372,-0.89334 -0.95398,0.18252 -0.66101,1.04544 -0.36069,2.09976 1.01532,3.56445 1.07468,1.14395 2.02962,3.62591 2.12207,5.51546 l 0.16811,3.43555 0.39226,-3.75 c 0.21574,-2.0625 0.87799,-3.75 1.47165,-3.75 z m 27.57207,-3.21658 c -2.42736,-3.65579 -6.03688,-5.81998 -8.57309,-5.14023 -2.23588,0.59927 -2.20763,0.6751 1,2.68395 1.8155,1.137 3.80337,1.97258 4.4175,1.85686 0.61413,-0.11572 1.68173,0.47054 2.37244,1.3028 1.90623,2.29687 2.45061,1.80795 0.78315,-0.70338 z m -20.35398,-0.39041 c 0.86999,-0.33384 1.58179,-1.43845 1.58179,-2.45469 0,-1.31992 0.99974,-2.03525 3.5,-2.5043 1.925,-0.36113 3.49693,-0.94402 3.49317,-1.29531 -0.01,-0.91978 -6.09043,-4.81474 -8.75414,-5.60753 -1.24353,-0.3701 -2.94259,-1.99103 -3.77568,-3.60205 -1.41978,-2.74555 -1.89111,-2.92913 -7.52041,-2.92913 -4.21219,0 -6.16542,0.41619 -6.5405,1.39363 -0.76387,1.99063 8.27308,14.8742 11.44124,16.31127 3.07236,1.3936 4.37952,1.53042 6.57453,0.68811 z m -19.41821,-17.45203 c 0,-1.06754 -0.45,-1.940981 -1,-1.940981 -0.55,0 -1,1.151561 -1,2.559021 0,1.45136 0.43284,2.2915 1,1.94098 0.55,-0.33992 1,-1.49148 1,-2.55902 z m 19,1.05902 c 0,-1.13148 -0.66667,-2 -1.53518,-2 -1.22531,0 -1.31913,0.4037 -0.46482,2 0.5887,1.1 1.27953,2 1.53518,2 0.25565,0 0.46482,-0.9 0.46482,-2 z m 5.27569,-6.57144 c 19.45987,-5.042557 30.72431,-17.347303 30.72431,-33.561782 0,-3.915605 0.60353,-7.079884 1.70648,-8.947031 1.44175,-2.4407 1.51932,-3.40641 0.5,-6.22529 -1.72453,-4.769083 -1.55814,-5.376217 1.79352,-6.544613 3.46822,-1.209029 3.49322,-1.295374 1.49443,-5.160615 -2.2147,-4.282755 -9.14466,-7.98923 -14.93739,-7.98923 -4.24011,0 -5.26191,0.46994 -9.24087,4.25 -9.38398,8.914895 -10.4494,10.166167 -10.99989,12.918619 -0.31146,1.55726 -1.21631,2.831381 -2.0108,2.831381 -0.79448,0 -4.87441,1.427868 -9.0665,3.17304 -6.31542,2.629118 -9.2605,4.729449 -17.18048,12.252569 -5.25717,4.993741 -12.656962,11.820712 -16.443973,15.171045 l -6.885474,6.091515 8.675143,1.820532 8.675144,1.820531 11.66849,-2.695463 c 6.41767,-1.482506 13.66825,-3.813152 16.1124,-5.179214 5.01041,-2.800374 6.63919,-2.527669 3.03143,0.507552 -2.76601,2.327054 -10.72319,4.946104 -23.08702,7.598933 -7.07894,1.518883 -8.48669,2.117141 -7.57283,3.21827 4.59295,5.534173 20.81868,7.81712 33.04388,4.649251 z m 24.73488,-54.915826 c -1.7818,-2.146935 -0.46259,-4.716212 2.22474,-4.332872 2.56293,0.365594 3.63722,3.652245 1.61308,4.934997 -1.87471,1.188058 -2.42357,1.101947 -3.83782,-0.602125 z M 94.767835,72.53117 c 0.0024,-0.570849 -49.681625,0.70153 -50.290541,1.287912 -0.434493,0.418413 8.167306,1.049803 19.115109,1.403089 10.947803,0.353285 20.97657,1.038702 22.286149,1.523147 1.865841,0.690219 3.085121,0.343791 5.634892,-1.601014 1.78961,-1.365003 3.254087,-2.540913 3.254391,-2.613134 z M 176.08252,46.043603 c 1.71945,-0.677918 1.7076,-0.813097 -0.22448,-2.561606 -1.75982,-1.592613 -2.44567,-1.677771 -4.99799,-0.620565 -1.87888,0.778257 -2.76133,1.738562 -2.41853,2.631891 0.56697,1.477505 4.55987,1.765061 7.641,0.55028 z"
       style="fill:#895c27" />
    <path
       id="path4175"
       d="m 22.767281,137.28541 c 27.722662,-4.46927 34.102793,-5.38555 37.500152,-5.38555 3.847262,0 50.101667,-5.56845 54.320887,-6.53955 3.06272,-0.70492 2.22582,-2.94784 -1.1217,-3.00619 -3.7572,-0.0655 -4.1333,-0.9399 -1.22413,-2.84606 l 2.53763,-1.66272 -1.9091,-3.72274 c -1.05001,-2.04751 -3.0779,-4.81368 -4.50642,-6.14705 -1.90566,-1.77873 -2.59732,-3.42514 -2.59732,-6.18262 0,-2.838571 -0.47376,-3.90866 -1.93592,-4.372735 -1.06476,-0.337941 -3.877264,-2.523853 -6.250005,-4.857582 -3.376096,-3.320587 -5.564255,-4.521776 -10.064074,-5.524665 -3.1625,-0.704837 -5.75,-1.699249 -5.75,-2.209805 0,-0.510556 0.883586,-1.81187 1.963525,-2.891809 1.363359,-1.363359 1.613281,-2.179989 0.817653,-2.671714 C 83.918229,78.875116 73.247143,78.184233 60.834934,77.729323 30.131645,76.604041 32.156408,77.05759 39.274898,72.899859 c 5.987981,-3.497429 5.999362,-3.499572 15.492383,-2.917721 6.911354,0.423614 36.32994,-0.307371 41.823254,-1.039214 0.17779,-0.02369 4.086035,-3.646618 8.684995,-8.050961 7.76202,-7.433559 17.32167,-13.406835 24.43221,-15.266283 1.1195,-0.292756 2.50825,-1.775815 3.0861,-3.295686 1.70231,-4.477414 14.61771,-16.272773 18.6453,-17.028353 8.14409,-1.527842 17.7339,2.467387 21.16626,8.818119 0.91404,1.69119 3.65588,5.365344 6.09298,8.164787 l 4.43111,5.089895 -3.93111,1.185857 c -2.1621,0.652221 -4.8311,1.222127 -5.9311,1.266457 -2.7673,0.111522 -5.2204,6.768605 -5.77093,15.660833 -0.52286,8.445347 -4.76886,17.408611 -10.84859,22.901284 -4.34005,3.920975 -13.45255,8.780124 -19.53922,10.419095 -4.22204,1.136881 -6.92466,3.338912 -5.97796,4.870712 0.29452,0.47654 4.44822,3.30233 9.23044,6.27954 4.78223,2.97721 9.55206,6.57241 10.59964,7.98934 l 1.90469,2.57623 41.20097,-5.39103 c 22.66053,-2.96507 44.6426,-5.75692 48.84905,-6.20411 4.20646,-0.4472 10.05646,-1.08824 13,-1.42454 4.24644,-0.48515 4.84368,-0.39472 2.89142,0.43779 -2.20467,0.94015 -17.88999,2.86613 -23.87974,2.93216 -1.3255,0.0146 -3.48167,1.3266 -4.97268,3.0258 l -2.63246,3 -17.81673,0 c -20.40336,0 -34.81595,1.3473 -42.7379,3.99517 -3.025,1.01109 -7.19969,2.15317 -9.2771,2.53796 -2.14127,0.39662 -4.21369,1.5154 -4.78518,2.58324 -1.26683,2.36709 -2.92131,2.44105 -2.98925,0.13363 -0.0283,-0.9625 -0.75601,-0.0511 -1.61705,2.0253 -1.2581,3.03398 -1.83707,3.54993 -2.94847,2.62756 -0.76062,-0.63126 -1.38295,-2.0489 -1.38295,-3.1503 0,-1.70953 -0.45727,-1.91111 -3.125,-1.37756 -1.71875,0.34375 -5.26627,0.625 -7.88337,0.625 -4.01562,0 -4.8454,0.3328 -5.31592,2.13208 -0.4118,1.57473 -1.10106,1.98995 -2.63665,1.58838 -1.57153,-0.41096 -2.44669,0.16713 -3.58476,2.36792 -0.82812,1.60139 -1.90835,2.91162 -2.40052,2.91162 -1.14292,0 -2.40683,-5.61973 -1.56886,-6.9756 1.73843,-2.81284 -25.747254,0.79295 -34.607555,4.5401 -6.352183,2.68643 -6.401531,2.69068 -12.497952,1.07789 -5.921697,-1.56657 -6.863029,-1.52207 -28.968126,1.36921 -23.410911,3.06209 -33.5985263,3.82234 -18.411286,1.37395 z M 121.9674,122.89986 c 0.59367,0 1.69882,0.7875 2.45589,1.75 1.20129,1.52725 1.2296,1.40631 0.2224,-0.95022 -0.63635,-1.48889 -2.43807,-3.14783 -4.01625,-3.69799 -1.57419,-0.54876 -2.86905,-1.58366 -2.87747,-2.29977 -0.0111,-0.94359 -0.27372,-0.89334 -0.95398,0.18252 -0.66101,1.04544 -0.36069,2.09976 1.01532,3.56445 1.07468,1.14395 2.02962,3.62591 2.12207,5.51546 l 0.16811,3.43555 0.39226,-3.75 c 0.21574,-2.0625 0.87799,-3.75 1.47165,-3.75 z m 16.04988,-0.49694 c 2.6125,-0.34408 4.75,-0.97199 4.75,-1.39535 0,-1.75625 -4.95558,-3.33862 -8.42019,-2.68866 -3.137,0.5885 -3.57981,0.42418 -3.57981,-1.32842 0,-1.49398 0.88553,-2.16613 3.5,-2.65661 1.925,-0.36113 3.49693,-0.94402 3.49317,-1.29531 -0.01,-0.91978 -6.09043,-4.81474 -8.75414,-5.60753 -1.24353,-0.3701 -2.94259,-1.99103 -3.77568,-3.60205 -1.41978,-2.74555 -1.89111,-2.92913 -7.52041,-2.92913 -4.21219,0 -6.16542,0.41619 -6.5405,1.39363 -0.80691,2.10279 8.31845,14.90528 11.64802,16.34167 1.57489,0.67942 3.3641,2.1708 3.97602,3.31418 0.83327,1.55698 1.78552,1.9534 3.79305,1.57904 1.47426,-0.27492 4.81797,-0.78137 7.43047,-1.12546 z m 11.52219,-2.71964 c -2.42736,-3.65579 -6.03688,-5.81998 -8.57309,-5.14023 -2.23588,0.59927 -2.20763,0.6751 1,2.68395 1.8155,1.137 3.80337,1.97258 4.4175,1.85686 0.61413,-0.11572 1.68173,0.47054 2.37244,1.3028 1.90623,2.29687 2.45061,1.80795 0.78315,-0.70338 z m -39.77219,-17.84244 c 0,-1.06754 -0.45,-1.940981 -1,-1.940981 -0.55,0 -1,1.151561 -1,2.559021 0,1.45136 0.43284,2.2915 1,1.94098 0.55,-0.33992 1,-1.49148 1,-2.55902 z m 19,1.05902 c 0,-1.13148 -0.66667,-2 -1.53518,-2 -1.22531,0 -1.31913,0.4037 -0.46482,2 0.5887,1.1 1.27953,2 1.53518,2 0.25565,0 0.46482,-0.9 0.46482,-2 z m 5.86904,-6.452759 c 12.42232,-3.306319 21.83096,-9.905395 26.59044,-18.650128 2.28942,-4.206426 2.99073,-6.960877 3.34928,-13.154574 0.28058,-4.846798 1.15845,-9.216779 2.30219,-11.460167 1.08916,-2.136325 1.49641,-4.069034 0.99126,-4.704228 -0.47159,-0.59298 -1.16041,-2.067248 -1.53071,-3.276151 -0.54215,-1.769943 -0.0791,-2.505259 2.37761,-3.77568 1.67799,-0.867721 3.05089,-2.059152 3.05089,-2.647624 0,-2.523997 -4.44039,-6.947054 -9.42023,-9.383466 -4.74648,-2.322236 -5.83351,-2.503987 -9.33573,-1.560936 -4.88442,1.315237 -15.5096,11.039565 -17.6345,16.13937 -1.20045,2.881079 -2.32435,3.823461 -5.79928,4.862626 -8.41416,2.516227 -14.03118,6.271782 -26.09633,17.448089 -6.717662,6.222767 -13.956702,12.869939 -16.086759,14.771493 l -3.87283,3.45737 7.015911,1.693382 c 3.858752,0.93136 8.526525,1.690513 10.372828,1.687007 5.09081,-0.0097 25.62162,-5.689888 28.83433,-7.977537 3.3861,-2.41112 4.7667,-2.617608 2.96193,-0.443 -2.38482,2.873536 -8.3221,5.188127 -20.06315,7.82143 -6.38935,1.433015 -11.90032,2.605482 -12.24659,2.605482 -1.783004,0 -0.23207,2.155813 2.6204,3.642391 8.53094,4.445937 21.39029,5.627329 31.61904,2.904851 z M 159.3018,41.291519 c -1.48795,-1.487949 -1.50867,-1.846079 -0.18349,-3.171261 1.70115,-1.701152 4.64897,-0.987323 4.64897,1.125771 0,0.774918 -0.62732,1.929574 -1.39405,2.565903 -1.07862,0.895173 -1.7736,0.777417 -3.07143,-0.520413 z M 93.767281,73.331552 c 2.135922,-2.351181 2.208738,-2.62348 0.5,-1.869782 -1.515645,0.668527 -27.942719,1.440256 -49.25,1.438209 -0.6875,-6.6e-5 -1.25,0.378805 -1.25,0.841936 0,0.463131 8.9707,1.141793 19.934888,1.508138 10.964189,0.366345 20.976689,1.059245 22.25,1.539778 2.726919,1.029107 4.418627,0.280506 7.815112,-3.458279 z M 176.08252,46.043603 c 1.71945,-0.677918 1.7076,-0.813097 -0.22448,-2.561606 -1.75982,-1.592613 -2.44567,-1.677771 -4.99799,-0.620565 -1.87888,0.778257 -2.76133,1.738562 -2.41853,2.631891 0.56697,1.477505 4.55987,1.765061 7.641,0.55028 z"
       style="fill:#525251" />
    <path
       id="path4173"
       d="m 22.767281,137.28541 c 27.722662,-4.46927 34.102793,-5.38555 37.500152,-5.38555 3.847262,0 50.101667,-5.56845 54.320887,-6.53955 3.09327,-0.71195 2.18949,-2.97094 -1.16866,-2.92103 -3.1958,0.0475 -3.25423,-0.26987 -0.57482,-3.12198 l 2.07756,-2.21146 -2.44155,-3.86767 c -1.34286,-2.12722 -3.12884,-4.43806 -3.96885,-5.13521 -0.84001,-0.69715 -1.82923,-3.28097 -2.19826,-5.74183 -0.5226,-3.484942 -1.26527,-4.782061 -3.35871,-5.866166 -1.47826,-0.765531 -4.094428,-2.939266 -5.813702,-4.830522 -2.452756,-2.698108 -4.444815,-3.718529 -9.25,-4.738259 -3.368226,-0.714786 -6.124047,-1.546618 -6.124047,-1.848516 0,-0.301898 0.976774,-1.588634 2.17061,-2.859414 1.193835,-1.270779 1.86074,-2.620377 1.482012,-2.999106 C 85.041174,78.840418 76.076899,78.174936 65.499293,77.740298 54.921686,77.30566 43.417424,76.826255 39.934265,76.674953 l -6.333015,-0.275094 5.577799,-3.195325 5.577799,-3.195325 13.755217,0.572237 c 7.635118,0.317632 19.279821,0.06091 26.172032,-0.577007 l 12.416817,-1.149245 8.418616,-8.082208 c 6.26197,-6.011742 10.30126,-8.952043 15.76764,-11.477668 4.04197,-1.867502 8.03246,-3.395459 8.86778,-3.395459 0.83708,0 2.40687,-2.00776 3.49751,-4.473328 1.1302,-2.555004 3.27761,-5.263202 5.00753,-6.315233 1.66583,-1.013048 3.98617,-3.059042 5.15633,-4.546652 2.94722,-3.746788 7.07642,-5.664787 12.19554,-5.664787 6.01633,0 14.38609,5.110806 17.13689,10.464255 1.12034,2.18034 3.51783,5.264457 5.32776,6.853592 4.5854,4.026041 4.19702,5.33591 -1.99286,6.721144 -4.88557,1.093344 -5.40598,1.494263 -6.90776,5.321716 -0.89327,2.276611 -1.87782,7.220852 -2.18789,10.987203 -1.35561,16.466525 -10.8267,26.606409 -31.87072,34.12127 -6.05388,2.161851 -6.19984,4.357701 -0.5,7.521791 2.3375,1.29759 5.64248,3.40545 7.34439,4.68414 1.70192,1.27869 3.53618,2.32489 4.07613,2.32489 0.53996,0 2.22275,1.48839 3.73953,3.30753 l 2.75779,3.30753 41.16608,-5.38659 c 22.64134,-2.96263 44.60772,-5.75249 48.81417,-6.19968 4.20646,-0.4472 10.05646,-1.08824 13,-1.42454 4.24644,-0.48515 4.84368,-0.39472 2.89142,0.43779 -2.20467,0.94015 -17.88999,2.86613 -23.87974,2.93216 -1.3255,0.0146 -3.48167,1.3266 -4.97268,3.0258 l -2.63246,3 -17.81673,0 c -20.40336,0 -34.81595,1.3473 -42.7379,3.99517 -3.025,1.01109 -7.19969,2.15317 -9.2771,2.53796 -2.14127,0.39662 -4.21369,1.5154 -4.78518,2.58324 -1.26661,2.36669 -2.91181,2.4395 -3.01929,0.13363 -0.0487,-1.04423 -0.66671,-0.41005 -1.53246,1.57251 -1.60044,3.66501 -3.70093,3.78493 -4.21971,0.24091 -0.28765,-1.9651 -0.75369,-2.19593 -3.375,-1.67167 -1.67269,0.33454 -5.23501,0.60825 -7.91626,0.60825 -3.66667,0 -4.875,0.37179 -4.875,1.5 0,0.93567 -0.94608,1.5 -2.5147,1.5 -1.75494,0 -3.10041,0.96312 -4.45333,3.18783 l -1.93864,3.18784 -1.08748,-2.86028 c -0.59811,-1.57316 -0.85823,-3.45769 -0.57805,-4.18784 0.66806,-1.74093 -3.76803,-1.70916 -17.550435,0.12568 -6.54787,0.87172 -13.068948,2.44877 -17,4.11127 -6.352183,2.68643 -6.401531,2.69068 -12.497952,1.07789 -5.921697,-1.56657 -6.863029,-1.52207 -28.968126,1.36921 -23.410911,3.06209 -33.5985263,3.82234 -18.411286,1.37395 z M 121.9674,122.89986 c 0.59367,0 1.69882,0.7875 2.45589,1.75 1.20129,1.52725 1.2296,1.40631 0.2224,-0.95022 -0.63635,-1.48889 -2.43807,-3.14783 -4.01625,-3.69799 -1.57419,-0.54876 -2.86905,-1.58366 -2.87747,-2.29977 -0.0111,-0.94359 -0.27372,-0.89334 -0.95398,0.18252 -0.66101,1.04544 -0.36069,2.09976 1.01532,3.56445 1.07468,1.14395 2.02962,3.62591 2.12207,5.51546 l 0.16811,3.43555 0.39226,-3.75 c 0.21574,-2.0625 0.87799,-3.75 1.47165,-3.75 z m 16.04988,-0.49694 c 2.6125,-0.34408 4.75,-0.97199 4.75,-1.39535 0,-1.75625 -4.95558,-3.33862 -8.42019,-2.68866 -3.11591,0.58455 -3.57981,0.41792 -3.57981,-1.28584 0,-1.52088 0.93967,-2.11617 4.21342,-2.66927 l 4.21343,-0.71185 -2.96343,-2.38587 c -1.62988,-1.31223 -4.37045,-2.9018 -6.09015,-3.53236 -1.7197,-0.63057 -3.88264,-2.42615 -4.80653,-3.99017 -1.56947,-2.6569 -2.10306,-2.84369 -8.12328,-2.84369 -5.33014,0 -6.44346,0.28608 -6.44346,1.65569 0,2.96445 9.30537,15.53758 12.27111,16.58035 1.52411,0.53588 3.2429,1.85588 3.81953,2.93333 0.77,1.43875 1.76027,1.82625 3.72889,1.45915 1.47426,-0.27492 4.81797,-0.78137 7.43047,-1.12546 z m 11.52219,-2.71964 c -2.42736,-3.65579 -6.03688,-5.81998 -8.57309,-5.14023 -2.23588,0.59927 -2.20763,0.6751 1,2.68395 1.8155,1.137 3.80337,1.97258 4.4175,1.85686 0.61413,-0.11572 1.68173,0.47054 2.37244,1.3028 1.90623,2.29687 2.45061,1.80795 0.78315,-0.70338 z m -39.77219,-17.84244 c 0,-1.06754 -0.45,-1.940981 -1,-1.940981 -0.55,0 -1,1.151561 -1,2.559021 0,1.45136 0.43284,2.2915 1,1.94098 0.55,-0.33992 1,-1.49148 1,-2.55902 z m 19,1.05902 c 0,-1.13148 -0.66667,-2 -1.53518,-2 -1.22531,0 -1.31913,0.4037 -0.46482,2 0.5887,1.1 1.27953,2 1.53518,2 0.25565,0 0.46482,-0.9 0.46482,-2 z m 5.86904,-6.452759 c 12.42232,-3.306319 21.83096,-9.905395 26.59044,-18.650128 2.28942,-4.206426 2.99073,-6.960877 3.34928,-13.154574 0.28058,-4.846798 1.15845,-9.216779 2.30219,-11.460167 1.08916,-2.136325 1.49641,-4.069034 0.99126,-4.704228 -0.47159,-0.59298 -1.16041,-2.067248 -1.53071,-3.276151 -0.54215,-1.769943 -0.0791,-2.505259 2.37761,-3.77568 1.67799,-0.867721 3.05089,-2.059152 3.05089,-2.647624 0,-2.523997 -4.44039,-6.947054 -9.42023,-9.383466 -4.74648,-2.322236 -5.83351,-2.503987 -9.33573,-1.560936 -4.88442,1.315237 -15.5096,11.039565 -17.6345,16.13937 -1.20045,2.881079 -2.32435,3.823461 -5.79928,4.862626 -8.41416,2.516227 -14.03118,6.271782 -26.09633,17.448089 -6.717662,6.222767 -13.956702,12.869939 -16.086759,14.771493 l -3.87283,3.45737 7.015911,1.693382 c 3.858752,0.93136 8.526525,1.690513 10.372828,1.687007 5.09081,-0.0097 25.62162,-5.689888 28.83433,-7.977537 3.3861,-2.41112 4.7667,-2.617608 2.96193,-0.443 -2.38482,2.873536 -8.3221,5.188127 -20.06315,7.82143 -6.38935,1.433015 -11.90032,2.605482 -12.24659,2.605482 -1.783004,0 -0.23207,2.155813 2.6204,3.642391 8.53094,4.445937 21.39029,5.627329 31.61904,2.904851 z M 159.3018,41.291519 c -1.48795,-1.487949 -1.50867,-1.846079 -0.18349,-3.171261 1.70115,-1.701152 4.64897,-0.987323 4.64897,1.125771 0,0.774918 -0.62732,1.929574 -1.39405,2.565903 -1.07862,0.895173 -1.7736,0.777417 -3.07143,-0.520413 z M 93.767281,73.331552 c 2.135922,-2.351181 2.208738,-2.62348 0.5,-1.869782 -1.515645,0.668527 -27.942719,1.440256 -49.25,1.438209 -0.6875,-6.6e-5 -1.25,0.378805 -1.25,0.841936 0,0.463131 8.9707,1.141793 19.934888,1.508138 10.964189,0.366345 20.976689,1.059245 22.25,1.539778 2.726919,1.029107 4.418627,0.280506 7.815112,-3.458279 z M 176.08252,46.043603 c 1.71945,-0.677918 1.7076,-0.813097 -0.22448,-2.561606 -1.75982,-1.592613 -2.44567,-1.677771 -4.99799,-0.620565 -1.87888,0.778257 -2.76133,1.738562 -2.41853,2.631891 0.56697,1.477505 4.55987,1.765061 7.641,0.55028 z"
       style="fill:#a12f16" />
    <path
       id="path4171"
       d="m 22.767281,137.28541 c 27.722662,-4.46927 34.102793,-5.38555 37.500152,-5.38555 3.847262,0 50.101667,-5.56845 54.320887,-6.53955 3.09327,-0.71195 2.18949,-2.97094 -1.16866,-2.92103 -3.1958,0.0475 -3.25423,-0.26987 -0.57482,-3.12198 l 2.07756,-2.21146 -2.44155,-3.86767 c -1.34286,-2.12722 -3.12884,-4.43806 -3.96885,-5.13521 -0.84001,-0.69715 -1.82923,-3.28097 -2.19826,-5.74183 -0.5226,-3.484942 -1.26527,-4.782061 -3.35871,-5.866166 -1.47826,-0.765531 -4.094428,-2.939266 -5.813702,-4.830522 -2.452756,-2.698108 -4.444815,-3.718529 -9.25,-4.738259 -3.368226,-0.714786 -6.124047,-1.546618 -6.124047,-1.848516 0,-0.301898 0.976774,-1.588634 2.17061,-2.859414 1.193835,-1.270779 1.86074,-2.620377 1.482012,-2.999106 C 85.041174,78.840418 76.076899,78.174936 65.499293,77.740298 54.921686,77.30566 43.417424,76.826255 39.934265,76.674953 l -6.333015,-0.275094 5.577799,-3.195325 5.577799,-3.195325 13.755217,0.572237 c 7.635118,0.317632 19.279821,0.06091 26.172032,-0.577007 l 12.416817,-1.149245 8.418616,-8.082208 c 6.26197,-6.011742 10.30126,-8.952043 15.76764,-11.477668 4.04197,-1.867502 8.03246,-3.395459 8.86778,-3.395459 0.83708,0 2.40687,-2.00776 3.49751,-4.473328 1.1302,-2.555004 3.27761,-5.263202 5.00753,-6.315233 1.66583,-1.013048 3.98617,-3.059042 5.15633,-4.546652 2.94722,-3.746788 7.07642,-5.664787 12.19554,-5.664787 6.01633,0 14.38609,5.110806 17.13689,10.464255 1.12034,2.18034 3.51783,5.264457 5.32776,6.853592 4.5854,4.026041 4.19702,5.33591 -1.99286,6.721144 -4.88557,1.093344 -5.40598,1.494263 -6.90776,5.321716 -0.89327,2.276611 -1.87782,7.220852 -2.18789,10.987203 -1.35561,16.466525 -10.8267,26.606409 -31.87072,34.12127 -6.05388,2.161851 -6.19984,4.357701 -0.5,7.521791 2.3375,1.29759 5.64248,3.40545 7.34439,4.68414 1.70192,1.27869 3.53618,2.32489 4.07613,2.32489 0.53996,0 2.22275,1.48839 3.73953,3.30753 l 2.75779,3.30753 41.16608,-5.38659 c 22.64134,-2.96263 44.60772,-5.75249 48.81417,-6.19968 4.20646,-0.4472 10.05646,-1.08824 13,-1.42454 4.24644,-0.48515 4.84368,-0.39472 2.89142,0.43779 -2.20467,0.94015 -17.88999,2.86613 -23.87974,2.93216 -1.3255,0.0146 -3.48167,1.3266 -4.97268,3.0258 l -2.63246,3 -17.81673,0 c -20.40336,0 -34.81595,1.3473 -42.7379,3.99517 -3.025,1.01109 -7.19969,2.15317 -9.2771,2.53796 -2.14127,0.39662 -4.21369,1.5154 -4.78518,2.58324 -1.26661,2.36669 -2.91181,2.4395 -3.01929,0.13363 -0.0487,-1.04423 -0.66671,-0.41005 -1.53246,1.57251 -1.60044,3.66501 -3.70093,3.78493 -4.21971,0.24091 -0.28765,-1.9651 -0.75369,-2.19593 -3.375,-1.67167 -1.67269,0.33454 -5.23501,0.60825 -7.91626,0.60825 -3.66667,0 -4.875,0.37179 -4.875,1.5 0,0.93567 -0.94608,1.5 -2.5147,1.5 -1.75494,0 -3.10041,0.96312 -4.45333,3.18783 l -1.93864,3.18784 -1.08748,-2.86028 c -0.59811,-1.57316 -0.85823,-3.45769 -0.57805,-4.18784 0.66806,-1.74093 -3.76803,-1.70916 -17.550435,0.12568 -6.54787,0.87172 -13.068948,2.44877 -17,4.11127 -6.352183,2.68643 -6.401531,2.69068 -12.497952,1.07789 -5.921697,-1.56657 -6.863029,-1.52207 -28.968126,1.36921 -23.410911,3.06209 -33.5985263,3.82234 -18.411286,1.37395 z m 98.988169,-12.38555 0.0784,-2.5 1.96673,2.36078 c 1.21082,1.45346 1.9667,1.82723 1.9667,0.97251 0,-2.05438 -2.90645,-5.83329 -4.48653,-5.83329 -2.36513,0 -11.49014,-14.08118 -11.50251,-17.75 -0.006,-1.7875 -0.46096,-3.250001 -1.01096,-3.250001 -1.97815,0 -1.0242,6.364151 1.34084,8.945281 4.04735,4.41714 6.86776,9.80776 5.55575,10.61863 -0.7969,0.49251 -0.40965,1.29515 1.21738,2.52319 2.01094,1.51781 2.37403,2.63504 2.3097,7.10691 -0.0746,5.18414 -0.0469,5.2371 1.20489,2.30599 0.70468,-1.65 1.3165,-4.125 1.35961,-5.5 z m 24.84044,-1 c -0.38955,-4.08484 0.67932,-5.09207 2.97139,-2.8 2.20046,2.20046 1.17204,-0.66147 -1.14991,-3.2 -3.0905,-3.37878 -6.39824,-5.21652 -7.16275,-3.97952 -0.33295,0.53874 -1.59132,0.9894 -2.79636,1.00148 -1.59294,0.016 -1.07237,0.52997 1.90718,1.88313 4.37514,1.98696 5.40184,3.54105 5.40184,8.1767 0,1.60501 0.27227,2.91821 0.60504,2.91821 0.33276,0 0.43337,-1.8 0.22357,-4 z m -8.57861,-1.49694 c 2.6125,-0.34408 4.75,-0.97199 4.75,-1.39535 0,-1.75625 -4.95558,-3.33862 -8.42019,-2.68866 -3.11591,0.58455 -3.57981,0.41792 -3.57981,-1.28584 0,-1.52088 0.93967,-2.11617 4.21342,-2.66927 l 4.21343,-0.71185 -2.96343,-2.38587 c -1.62988,-1.31223 -4.37045,-2.9018 -6.09015,-3.53236 -1.7197,-0.63057 -3.88264,-2.42615 -4.80653,-3.99017 -1.56947,-2.6569 -2.10306,-2.84369 -8.12328,-2.84369 -5.33014,0 -6.44346,0.28608 -6.44346,1.65569 0,2.96445 9.30537,15.53758 12.27111,16.58035 1.52411,0.53588 3.2429,1.85588 3.81953,2.93333 0.77,1.43875 1.76027,1.82625 3.72889,1.45915 1.47426,-0.27492 4.81797,-0.78137 7.43047,-1.12546 z m -2.52083,-6.10723 c -0.3323,-0.33229 -1.1948,-0.36781 -1.91667,-0.0789 -0.79773,0.31922 -0.56078,0.55618 0.60417,0.60416 1.05416,0.0434 1.64479,-0.19292 1.3125,-0.52522 z m -6.38546,-13.1895 c -0.31734,-1.21348 -1.19949,-2.20633 -1.96034,-2.20633 -1.82826,0 -1.74611,0.94169 0.27717,3.17739 2.00541,2.21595 2.44958,1.9597 1.68317,-0.97106 z m 5.52533,-6.659089 c 12.42232,-3.306319 21.83096,-9.905395 26.59044,-18.650128 2.28942,-4.206426 2.99073,-6.960877 3.34928,-13.154574 0.28058,-4.846798 1.15845,-9.216779 2.30219,-11.460167 1.08916,-2.136325 1.49641,-4.069034 0.99126,-4.704228 -0.47159,-0.59298 -1.16041,-2.067248 -1.53071,-3.276151 -0.54215,-1.769943 -0.0791,-2.505259 2.37761,-3.77568 1.67799,-0.867721 3.05089,-2.059152 3.05089,-2.647624 0,-2.523997 -4.44039,-6.947054 -9.42023,-9.383466 -4.74648,-2.322236 -5.83351,-2.503987 -9.33573,-1.560936 -4.88442,1.315237 -15.5096,11.039565 -17.6345,16.13937 -1.20045,2.881079 -2.32435,3.823461 -5.79928,4.862626 -8.41416,2.516227 -14.03118,6.271782 -26.09633,17.448089 -6.717662,6.222767 -13.956702,12.869939 -16.086759,14.771493 l -3.87283,3.45737 7.015911,1.693382 c 3.858752,0.93136 8.526525,1.690513 10.372828,1.687007 5.09081,-0.0097 25.62162,-5.689888 28.83433,-7.977537 3.3861,-2.41112 4.7667,-2.617608 2.96193,-0.443 -2.38482,2.873536 -8.3221,5.188127 -20.06315,7.82143 -6.38935,1.433015 -11.90032,2.605482 -12.24659,2.605482 -1.783004,0 -0.23207,2.155813 2.6204,3.642391 8.53094,4.445937 21.39029,5.627329 31.61904,2.904851 z M 159.3018,41.291519 c -1.48795,-1.487949 -1.50867,-1.846079 -0.18349,-3.171261 1.70115,-1.701152 4.64897,-0.987323 4.64897,1.125771 0,0.774918 -0.62732,1.929574 -1.39405,2.565903 -1.07862,0.895173 -1.7736,0.777417 -3.07143,-0.520413 z M 93.767281,73.331552 c 2.135922,-2.351181 2.208738,-2.62348 0.5,-1.869782 -1.515645,0.668527 -27.942719,1.440256 -49.25,1.438209 -0.6875,-6.6e-5 -1.25,0.378805 -1.25,0.841936 0,0.463131 8.9707,1.141793 19.934888,1.508138 10.964189,0.366345 20.976689,1.059245 22.25,1.539778 2.726919,1.029107 4.418627,0.280506 7.815112,-3.458279 z M 177.1028,46.231011 c 0.97397,-0.973974 -2.35858,-4.331152 -4.29938,-4.331152 -2.42835,0 -5.454,2.514869 -4.6299,3.848296 0.75775,1.226063 7.80498,1.607146 8.92928,0.482856 z"
       style="fill:#6d4b19" />
    <path
       id="path4169"
       d="m 24.036313,137.20687 c 0.972967,-0.25354 2.322967,-0.23687 3,0.0371 0.677032,0.27393 -0.119032,0.48137 -1.769032,0.46099 -1.65,-0.0204 -2.203936,-0.2445 -1.230968,-0.49804 z m 6.980968,-0.99634 c 0.9625,-0.25152 2.5375,-0.25152 3.5,0 0.9625,0.25153 0.175,0.45733 -1.75,0.45733 -1.925,0 -2.7125,-0.2058 -1.75,-0.45733 z m 15.75,-2.37922 c 10.451481,-1.81492 16.788634,-2.38675 15.830332,-1.42845 -0.581289,0.58129 -22.427719,3.5578 -24.766752,3.3744 -0.859969,-0.0674 3.16142,-0.94311 8.93642,-1.94595 z m 71.112219,-0.13629 c -0.53961,-1.41929 -0.72001,-3.57898 -0.40088,-4.79931 0.52157,-1.99452 0.28751,-2.16231 -2.31556,-1.65993 -1.59268,0.30737 -5.82078,0.83673 -9.39578,1.17634 -10.834895,1.02926 -18.194701,2.54642 -22.155788,4.56722 -4.374258,2.23158 -11.668492,2.41368 -16.844211,0.42052 -1.925,-0.74131 -2.841727,-1.38208 -2.037171,-1.42392 3.261383,-0.16962 50.6359,-6.24603 51.89979,-6.65684 2.22259,-0.72242 -0.66364,-3.41924 -3.65938,-3.41924 l -2.55187,0 2.25188,-2.39701 2.25187,-2.39701 -2.44155,-3.86767 c -1.34286,-2.12722 -3.12884,-4.43806 -3.96885,-5.13521 -0.84001,-0.69715 -1.82923,-3.28097 -2.19826,-5.74183 -0.5226,-3.484942 -1.26527,-4.782061 -3.35871,-5.866166 -1.47826,-0.765531 -4.094428,-2.939266 -5.813702,-4.830522 -2.452756,-2.698108 -4.444815,-3.718529 -9.25,-4.738259 -3.368226,-0.714786 -6.124047,-1.546618 -6.124047,-1.848516 0,-0.301898 0.976774,-1.588634 2.17061,-2.859414 1.193835,-1.270779 1.86074,-2.620377 1.482012,-2.999106 C 85.041174,78.840418 76.076899,78.174936 65.499293,77.740298 54.921686,77.30566 43.417424,76.826255 39.934265,76.674953 l -6.333015,-0.275094 5.577799,-3.195325 5.577799,-3.195325 13.755217,0.572237 c 7.635118,0.317632 19.279821,0.06091 26.172032,-0.577007 l 12.416817,-1.149245 8.418616,-8.082208 c 6.26197,-6.011742 10.30126,-8.952043 15.76764,-11.477668 4.04197,-1.867502 8.03246,-3.395459 8.86778,-3.395459 0.83708,0 2.40687,-2.00776 3.49751,-4.473328 1.1302,-2.555004 3.27761,-5.263202 5.00753,-6.315233 1.66583,-1.013048 3.98617,-3.059042 5.15633,-4.546652 2.94722,-3.746788 7.07642,-5.664787 12.19554,-5.664787 6.01633,0 14.38609,5.110806 17.13689,10.464255 1.12034,2.18034 3.51783,5.264457 5.32776,6.853592 4.5854,4.026041 4.19702,5.33591 -1.99286,6.721144 -4.88557,1.093344 -5.40598,1.494263 -6.90776,5.321716 -0.89327,2.276611 -1.87782,7.220852 -2.18789,10.987203 -1.35561,16.466525 -10.8267,26.606409 -31.87072,34.12127 -6.05388,2.161851 -6.19984,4.357701 -0.5,7.521791 2.3375,1.29759 5.64248,3.40545 7.34439,4.68414 1.70192,1.27869 3.53349,2.32489 4.07017,2.32489 0.53668,0 2.24835,1.59612 3.80372,3.54692 2.27277,2.8506 3.33875,3.44747 5.42984,3.04034 1.43103,-0.27863 5.30188,-0.76344 8.60188,-1.07735 l 6,-0.57076 -5,2.02961 c -2.75,1.11629 -6.47364,2.02998 -8.27475,2.03043 -2.57255,6.4e-4 -3.47857,0.53688 -4.22525,2.50081 -1.18283,3.11108 -2.97441,3.25668 -3.07608,0.25 -0.0592,-1.75051 -0.35649,-1.47302 -1.33922,1.25 -1.42394,3.94554 -3.92078,4.65419 -4.40425,1.25 -0.25746,-1.81279 -0.95902,-2.25 -3.61043,-2.25 -6.60727,0 -12.57002,1.25039 -12.57002,2.63592 0,2.003 -3.7747,1.66506 -4.31067,-0.38592 -0.42618,-1.63082 -0.46523,-1.63247 -0.57333,-0.0242 -0.0638,0.94921 -0.995,3.17123 -2.06934,4.93783 l -1.95333,3.21201 -0.98111,-2.58051 z m 3.87595,-8.79516 0.0784,-2.5 1.96673,2.36078 c 1.21082,1.45346 1.9667,1.82723 1.9667,0.97251 0,-2.05438 -2.90645,-5.83329 -4.48653,-5.83329 -2.36513,0 -11.49014,-14.08118 -11.50251,-17.75 -0.006,-1.7875 -0.46096,-3.250001 -1.01096,-3.250001 -1.97815,0 -1.0242,6.364151 1.34084,8.945281 4.04735,4.41714 6.86776,9.80776 5.55575,10.61863 -0.7969,0.49251 -0.40965,1.29515 1.21738,2.52319 2.01094,1.51781 2.37403,2.63504 2.3097,7.10691 -0.0746,5.18414 -0.0469,5.2371 1.20489,2.30599 0.70468,-1.65 1.3165,-4.125 1.35961,-5.5 z m 24.84044,-1 c -0.38955,-4.08484 0.67932,-5.09207 2.97139,-2.8 2.20046,2.20046 1.17204,-0.66147 -1.14991,-3.2 -3.0905,-3.37878 -6.39824,-5.21652 -7.16275,-3.97952 -0.33295,0.53874 -1.59132,0.9894 -2.79636,1.00148 -1.59294,0.016 -1.07237,0.52997 1.90718,1.88313 4.37514,1.98696 5.40184,3.54105 5.40184,8.1767 0,1.60501 0.27227,2.91821 0.60504,2.91821 0.33276,0 0.43337,-1.8 0.22357,-4 z m -4.37876,-1.98053 c 1.821,-0.66446 1.7733,-0.82715 -0.72175,-2.46197 -1.84752,-1.21054 -3.91413,-1.60697 -6.69985,-1.28519 -3.37058,0.38934 -4.02825,0.17455 -4.02825,-1.3156 0,-1.31347 1.10592,-1.96776 4.21342,-2.49277 l 4.21343,-0.71185 -2.96343,-2.38587 c -1.62988,-1.31223 -4.37045,-2.9018 -6.09015,-3.53236 -1.7197,-0.63057 -3.88264,-2.42615 -4.80653,-3.99017 -1.56947,-2.6569 -2.10306,-2.84369 -8.12328,-2.84369 -5.33014,0 -6.44346,0.28608 -6.44346,1.65569 0,2.91946 9.30301,15.53674 12.20914,16.55874 1.49003,0.524 2.99285,1.84662 3.3396,2.93915 0.57712,1.81835 1.194,1.92681 7.29086,1.28189 3.66322,-0.38749 7.53783,-1.02469 8.61025,-1.416 z m -6.72068,-5.62364 c -0.3323,-0.33229 -1.1948,-0.36781 -1.91667,-0.0789 -0.79773,0.31922 -0.56078,0.55618 0.60417,0.60416 1.05416,0.0434 1.64479,-0.19292 1.3125,-0.52522 z m -6.38546,-13.1895 c -0.31734,-1.21348 -1.19949,-2.20633 -1.96034,-2.20633 -1.82826,0 -1.74611,0.94169 0.27717,3.17739 2.00541,2.21595 2.44958,1.9597 1.68317,-0.97106 z m 6.65629,-6.861979 c 18.42825,-5.098804 29.10081,-17.361588 29.45058,-33.838767 0.0767,-3.61251 0.8343,-7.329253 1.90128,-9.32742 1.15541,-2.163776 1.44594,-3.732566 0.83336,-4.5 -0.51725,-0.647991 -1.24342,-2.167268 -1.61372,-3.376171 -0.54215,-1.769943 -0.0791,-2.505259 2.37761,-3.77568 3.7103,-1.918667 3.82048,-3.458261 0.52755,-7.37168 -3.79974,-4.515732 -10.60888,-7.47704 -15.35048,-6.675952 -4.77798,0.807235 -16.24112,11.114543 -18.55831,16.68708 -1.18083,2.839724 -2.26157,3.822971 -4.79609,4.363422 -7.35367,1.568068 -14.31642,5.96012 -24.20185,15.266356 -5.53846,5.213958 -12.769929,11.731387 -16.069929,14.483176 -3.3,2.751789 -6.130276,5.330637 -6.289501,5.730773 -0.39177,0.984519 11.831238,3.990511 16.22628,3.990511 6.08987,0 25.28735,-5.002187 29.08305,-7.57802 1.96294,-1.332089 3.8291,-2.42198 4.14702,-2.42198 1.23094,0 -2.16421,3.205834 -4.88547,4.613051 -3.90971,2.021793 -21.86504,6.386949 -26.27162,6.386949 -3.19066,0 -3.470966,0.203969 -2.576681,1.874954 1.329791,2.484729 8.812771,5.925057 15.326431,7.046384 6.16729,1.061698 13.11216,0.533651 20.74049,-1.576986 z m 23.16996,-56.514312 c 0.22003,-1.55336 0.99671,-2.33004 2.33004,-2.33004 2.97814,0 2.6806,3.903596 -0.33004,4.33004 -1.93881,0.274624 -2.27462,-0.06119 -2,-2 z M 92.531966,74.304384 c 2.353447,-2.26534 2.995421,-3.311756 1.735315,-2.828558 -1.1,0.421805 -12.77057,0.907838 -25.934599,1.080074 -13.16403,0.172237 -24.33798,0.716538 -24.831002,1.20956 -0.528537,0.528537 7.44703,1.201708 19.434599,1.640361 11.182051,0.409176 21.231002,1.109202 22.331002,1.555611 3.080429,1.250121 3.282234,1.176312 7.264685,-2.657048 z M 177.1028,46.231011 c 0.97397,-0.973974 -2.35858,-4.331152 -4.29938,-4.331152 -2.42835,0 -5.454,2.514869 -4.6299,3.848296 0.75775,1.226063 7.80498,1.607146 8.92928,0.482856 z m 28.16448,68.066599 c 9.9,-1.3058 22.16615,-3.12582 27.25812,-4.04451 5.09197,-0.91868 9.532,-1.39646 9.86674,-1.06172 0.33474,0.33474 -1.79744,0.9278 -4.73818,1.3179 -4.10399,0.54441 -5.92618,1.36956 -7.83942,3.54993 l -2.49263,2.84065 -20.02731,-0.11404 -20.02732,-0.11404 18,-2.37417 z m 42,-5.45512 c 2.2,-0.45505 5.35,-0.80155 7,-0.77 2.60986,0.0499 2.47982,0.16496 -1,0.88474 -2.2,0.45505 -5.35,0.80155 -7,0.77 -2.60986,-0.0499 -2.47982,-0.16496 1,-0.88474 z"
       style="fill:#552e12" />
    <path
       id="path4167"
       d="m 118.51728,135.31707 c -0.4125,-0.4128 -0.75,-2.53671 -0.75,-4.7198 l 0,-3.96926 -4.25,0.5825 c -6.41811,0.87965 -18.386999,1.76118 -17.249999,1.2705 0.55,-0.23736 5.612499,-0.96584 11.249999,-1.61885 7.30051,-0.84564 10.25,-1.57226 10.25,-2.52511 0,-1.86216 -2.87031,-3.27722 -5.39203,-2.65827 -2.0115,0.49371 -1.99643,0.39557 0.32922,-2.14447 l 2.43719,-2.66187 -4.18719,-5.93743 c -4.35436,-6.17448 -5.75926,-9.30343 -2.07319,-4.61735 1.16271,1.47814 2.35183,2.4497 2.64251,2.15903 0.29067,-0.29067 -0.0417,-1.21549 -0.73851,-2.05515 -0.75891,-0.91442 -1.02659,-2.72873 -0.6675,-4.52416 0.49787,-2.489361 0.27711,-2.997521 -1.30218,-2.997521 -1.04592,0 -2.10747,0.7875 -2.35899,1.750001 -0.34801,1.33168 -0.48506,1.2183 -0.57333,-0.47432 -0.0717,-1.375679 -1.22701,-2.798849 -3.02801,-3.730179 -1.6016,-0.828223 -3.974817,-2.863877 -5.273806,-4.523677 -1.37283,-1.754152 -4.236136,-3.632946 -6.83799,-4.486832 -3.299018,-1.082684 -3.555743,-1.28045 -0.976193,-0.752003 4.51921,0.925805 16.371919,0.909773 21.499999,-0.02908 3.2443,-0.59397 3.05538,-0.45462 -1,0.737594 -2.75,0.808455 -6.4625,1.478598 -8.25,1.489207 -1.7875,0.01061 -3.249999,0.399546 -3.249999,0.864302 0,3.149885 10.639299,7.755738 20.164329,8.729328 11.87311,1.2136 27.41253,-4.242216 36.48326,-12.809093 6.70378,-6.331396 9.60418,-12.929816 9.90209,-22.527292 0.12398,-3.994125 0.77302,-7.92186 1.44231,-8.728301 1.35421,-1.631732 1.51823,-4.632504 0.47719,-8.730515 -0.58265,-2.293592 -0.28118,-2.907677 1.91981,-3.910515 3.79679,-1.729933 3.35065,-4.96768 -1.25828,-9.131572 -4.72148,-4.265573 -10.05063,-6.162258 -14.80707,-5.269946 -4.29944,0.806581 -18.32364,14.073949 -18.32364,17.334786 0,1.61151 -1.32335,2.475429 -6.35856,4.151039 -9.07054,3.018483 -14.76463,6.922092 -26.14144,17.921383 -5.499999,5.317494 -12.024999,11.330658 -14.499999,13.362587 -3.715043,3.049981 -4.238348,3.872169 -3,4.713444 1.229487,0.835255 1.09423,1.02179 -0.75,1.034341 -2.812191,0.01914 -2.828627,-0.739865 -0.07939,-3.666293 1.193835,-1.270779 1.839555,-2.641563 1.434932,-3.046185 -0.404622,-0.404622 -12.14276,-1.193897 -26.084751,-1.753943 l -25.349074,-1.018266 5.402146,-3.195615 5.402145,-3.195614 13.761996,0.572526 c 7.662883,0.318792 19.301811,0.06081 26.261996,-0.582098 l 12.5,-1.154626 6.999999,-6.916761 c 7.73991,-7.647878 16.03407,-13.077472 22.92351,-15.006397 3.88056,-1.086489 4.82042,-1.893865 6.68258,-5.740575 1.19181,-2.461948 3.43783,-5.249153 4.99116,-6.193788 1.55333,-0.944635 3.81746,-2.980195 5.03139,-4.523465 4.16679,-5.297206 11.68881,-6.916161 18.65348,-4.01476 3.97419,1.655603 11.21788,8.109634 11.21788,9.994984 0,0.625854 1.8,2.974189 4,5.218524 2.2,2.244335 4,4.534042 4,5.088239 0,0.554197 -2.3625,1.508724 -5.25,2.121171 -4.67535,0.991656 -5.42974,1.519338 -6.89208,4.820898 -0.90315,2.039046 -1.89497,7.035532 -2.20406,11.103301 -0.67992,8.948356 -3.7472,15.781304 -9.85839,21.961455 -5.12735,5.185221 -9.82037,7.972622 -19.53894,11.605097 -7.61937,2.847865 -8.55134,3.493855 -7.44055,5.157375 0.78606,1.1772 14.88181,10.36617 15.9652,10.40766 0.39535,0.0151 1.84382,1.61077 3.21882,3.54584 2.49282,3.50822 2.51723,3.51657 8.5,2.91124 3.3,-0.33389 7.125,-0.81862 8.5,-1.07719 1.375,-0.25856 0.475,0.41885 -2,1.50536 -2.475,1.08651 -6.1875,2.00062 -8.25,2.03135 -2.49148,0.0371 -3.75,0.51818 -3.75,1.43343 0,0.75765 -0.675,1.93775 -1.5,2.62244 -1.25951,1.0453 -1.51558,0.86453 -1.59718,-1.12756 -0.0806,-1.96777 -0.3618,-1.72703 -1.64856,1.41137 -1.75567,4.28205 -3.91205,4.42722 -3.44614,0.23201 0.24686,-2.22283 -0.0179,-2.64929 -1.33179,-2.14511 -0.90195,0.34611 -4.70062,0.62929 -8.44149,0.62929 -5.96057,0 -6.86625,0.2473 -7.32459,2 -0.64334,2.46015 -3.70535,2.66576 -3.72312,0.25 -0.007,-0.9625 -1.01957,0.42524 -2.25,3.08388 -1.23042,2.65863 -2.57463,4.49613 -2.98713,4.08333 z m 2.87517,-7.47459 c 0.34674,-2.16844 0.97479,-3.94262 1.39565,-3.94262 0.94194,0 2.38101,3.13371 2.06651,4.5 -0.12813,0.55662 0.27519,0.50412 0.90965,-0.1184 1.85196,-1.81715 -1.22185,-7.97024 -4.37721,-8.76218 -1.65286,-0.41485 -3.29966,-2.03178 -4.53452,-4.45232 -1.74799,-3.42634 -5.08525,-7.26331 -5.08525,-5.8467 0,0.3109 0.94669,2.1698 2.10375,4.13087 1.15707,1.96108 1.85091,4.22449 1.54189,5.0298 -0.31856,0.83014 0.33605,2.09312 1.51163,2.91653 1.63371,1.1443 2.0735,2.52614 2.0735,6.51507 0,5.82669 1.46453,5.845 2.3944,0.03 z m 25.52563,-0.69262 c 0.0829,-0.9625 0.051,-3.01128 -0.0711,-4.55284 -0.20577,-2.59976 -0.0718,-2.70913 1.8492,-1.50946 1.13908,0.71137 2.10658,1.97265 2.15,2.80285 0.0483,0.92363 0.26593,1.05063 0.56073,0.32724 0.97021,-2.38069 -2.81121,-7.36716 -8.40337,-11.08132 -7.9139,-5.25621 -9.31997,-5.90798 -5.33518,-2.47309 3.71696,3.20404 3.52677,3.58306 -2.40113,4.78494 l -4,0.81099 3.5,0.68871 3.5,0.6887 -3.75,0.13164 c -5.30418,0.1862 -5.07339,-2.46898 0.29341,-3.37569 3.42801,-0.57916 3.85612,-0.90881 2.81281,-2.16591 -0.67682,-0.81553 -3.38826,-2.57615 -6.02542,-3.9125 -2.63715,-1.33635 -5.52967,-3.55124 -6.42782,-4.92199 -1.45824,-2.22563 -2.31605,-2.49227 -8.01794,-2.49227 -6.10282,0 -6.38499,0.10787 -6.38499,2.44098 0,1.34254 0.45218,2.72045 1.00485,3.06202 0.55267,0.34157 2.81944,3.29313 5.03726,6.55902 2.21783,3.26589 4.65798,5.93798 5.42257,5.93798 0.76459,0 2.30649,1.16492 3.42645,2.58872 1.97326,2.50859 2.27,2.56682 9.58701,1.88116 4.1529,-0.38916 7.77351,-1.06805 8.04582,-1.50865 0.2723,-0.44059 -0.69488,-1.73711 -2.14929,-2.88116 -1.45441,-1.14404 -2.11325,-2.08007 -1.46407,-2.08007 0.64917,0 2.33108,1.15077 3.73758,2.55727 1.99554,1.99554 2.46898,3.31348 2.15534,6 -0.22105,1.8935 -0.0423,3.44273 0.39728,3.44273 0.43956,0 0.86706,-0.7875 0.95,-1.75 z m -16.94731,-23.24368 c -0.93692,-1.64652 -2.54609,-2.99652 -3.57593,-3 -1.62093,-0.005 -1.69469,0.22875 -0.54909,1.74368 3.56327,4.71202 6.6214,5.64342 4.12502,1.25632 z M 92.821114,74.268 l 3.446167,-3.631859 -3,0.789839 c -1.65,0.434411 -13.259637,0.875885 -25.799194,0.981052 -13.527293,0.113452 -23.204025,0.596046 -23.794656,1.186677 -1.03607,1.03607 13.527524,2.198145 30.09385,2.401282 4.675,0.05733 9.625,0.464516 11,0.904868 4.052443,1.297819 4.447604,1.168687 8.053833,-2.631859 z M 178.0886,45.907248 c 0.45173,-0.412516 -0.3572,-1.677055 -1.79762,-2.810088 -2.17866,-1.713736 -3.11528,-1.887037 -5.57132,-1.030855 -3.03705,1.058721 -4.07664,4.215271 -1.70238,5.169013 1.55393,0.624216 7.96057,-0.313737 9.07132,-1.32807 z M 45.517281,134.23758 c 0.6875,-0.27741 1.8125,-0.27741 2.5,0 0.6875,0.27741 0.125,0.50439 -1.25,0.50439 -1.375,0 -1.9375,-0.22698 -1.25,-0.50439 z m 22.78059,-0.68803 c -3.82748,-1.15382 -3.441428,-1.26262 10.79692,-3.04289 8.121482,-1.01546 14.985292,-1.62733 15.252911,-1.35971 0.26762,0.26762 -1.369788,0.78342 -3.638685,1.14624 -2.268897,0.36281 -5.866046,1.54773 -7.993664,2.63316 -4.334007,2.21105 -8.546253,2.39312 -14.417482,0.6232 z m -16.28059,-0.33902 c 0.9625,-0.25152 2.5375,-0.25152 3.5,0 0.9625,0.25153 0.175,0.45733 -1.75,0.45733 -1.925,0 -2.7125,-0.2058 -1.75,-0.45733 z M 204.26728,116.06381 c -6.8136,-0.4325 -6.54761,-0.50524 9.98923,-2.73158 9.34408,-1.25798 17.09075,-2.18572 17.21482,-2.06165 0.12408,0.12408 -0.90179,1.44142 -2.2797,2.92744 -2.34388,2.52776 -3.002,2.68922 -10.21482,2.50598 -4.24024,-0.10772 -10.85953,-0.39581 -14.70953,-0.64019 z m 30.3125,-5.84706 c 0.72187,-0.28887 1.58437,-0.25335 1.91667,0.0789 0.33229,0.3323 -0.25834,0.56864 -1.3125,0.52522 -1.16495,-0.048 -1.4019,-0.28494 -0.60417,-0.60416 z M 120.00285,84.417734 c 2.60456,-0.71681 6.37377,-2.269858 8.37603,-3.451218 4.03776,-2.382337 5.8027,-2.223363 2.11823,0.190797 -2.91621,1.910774 -11.22759,4.772375 -13.51478,4.653129 -0.94328,-0.04918 0.41595,-0.675899 3.02052,-1.392708 z m 38.76443,-44.458858 c 0,-2.521198 1.71458,-3.540782 3.48436,-2.071994 1.82078,1.511112 0.82866,4.012977 -1.59135,4.012977 -1.20716,0 -1.89301,-0.703233 -1.89301,-1.940983 z"
       style="fill:#0a0703" />
  </g>
  <text
     id="text4189"
     y="36.450195"
     x="41.411186"
     style="font-style:normal;font-weight:normal;font-size:12.5px;line-height:125%;font-family:sans-serif;letter-spacing:0px;word-spacing:0px;fill:#000000;fill-opacity:1;stroke:none;stroke-width:1px;stroke-linecap:butt;stroke-linejoin:miter;stroke-opacity:1"
     xml:space="preserve"><tspan
       style="font-size:50px;fill:#aaccff"
       y="36.450195"
       x="41.411186"
       id="tspan4191">TBB</tspan></text>
</svg>
