<?xml version="1.0" encoding="UTF-8" standalone="no"?>
<!-- Created with Inkscape (http://www.inkscape.org/) -->

<svg
   xmlns:dc="http://purl.org/dc/elements/1.1/"
   xmlns:cc="http://creativecommons.org/ns#"
   xmlns:rdf="http://www.w3.org/1999/02/22-rdf-syntax-ns#"
   xmlns:svg="http://www.w3.org/2000/svg"
   xmlns="http://www.w3.org/2000/svg"
   xmlns:sodipodi="http://sodipodi.sourceforge.net/DTD/sodipodi-0.dtd"
   xmlns:inkscape="http://www.inkscape.org/namespaces/inkscape"
   width="224.6489mm"
   height="80.433334mm"
   viewBox="0 0 796.00002 285"
   id="svg5374"
   version="1.1"
   inkscape:version="0.91 r13725"
   sodipodi:docname="openmplogo.svg">
  <defs
     id="defs5376" />
  <sodipodi:namedview
     id="base"
     pagecolor="#ffffff"
     bordercolor="#666666"
     borderopacity="1.0"
     inkscape:pageopacity="0.0"
     inkscape:pageshadow="2"
     inkscape:zoom="0.7"
     inkscape:cx="373.03041"
     inkscape:cy="281.81009"
     inkscape:document-units="px"
     inkscape:current-layer="layer1"
     showgrid="false"
     fit-margin-top="0"
     fit-margin-left="0"
     fit-margin-right="0"
     fit-margin-bottom="0"
     inkscape:window-width="1678"
     inkscape:window-height="1021"
     inkscape:window-x="1680"
     inkscape:window-y="27"
     inkscape:window-maximized="1" />
  <metadata
     id="metadata5379">
    <rdf:RDF>
      <cc:Work
         rdf:about="">
        <dc:format>image/svg+xml</dc:format>
        <dc:type
           rdf:resource="http://purl.org/dc/dcmitype/StillImage" />
        <dc:title></dc:title>
      </cc:Work>
    </rdf:RDF>
  </metadata>
  <g
     inkscape:label="Ebene 1"
     inkscape:groupmode="layer"
     id="layer1"
     transform="translate(9.5891638,-177.26656)">
    <path
       inkscape:connector-curvature="0"
       id="path6001"
       d="m -9.5891638,319.76656 0,-142.5 398.0000038,0 398,0 0,142.5 0,142.5 -398,0 -398.0000038,0 0,-142.5 z"
       style="fill:#fefefe" />
    <path
       inkscape:connector-curvature="0"
       id="path5999"
       d="m 155.41084,378.76656 0,-83.5 8,0 8,0 0,6.60815 0,6.60816 4.54739,-5.05779 c 11.38673,-12.66479 30.94626,-14.67852 47.3147,-4.87125 25.91044,15.52443 29.8538,59.54357 7.4973,83.69126 -15.16173,16.37648 -42.86056,18.60407 -55.29099,4.44659 l -3.0684,-3.49471 0,39.53479 0,39.5348 -8.5,0 -8.5,0 0,-83.5 z m 52.68961,0.94425 c 1.75429,-0.71045 5.28206,-3.22048 7.8395,-5.57785 8.44087,-7.78052 12.07852,-18.40365 11.21369,-32.74763 -0.64965,-10.77504 -3.6421,-18.96934 -9.08286,-24.87187 -5.20416,-5.64584 -10.52778,-8.33389 -17.81346,-8.99454 -16.59579,-1.50485 -26.19009,8.47985 -28.9873,30.16685 -2.08752,16.18472 0.8819,29.02656 8.38126,36.2464 2.34276,2.25545 5.293,4.6304 6.5561,5.27769 5.81654,2.98074 15.23755,3.19631 21.89307,0.50095 z m -217.6896138,45.55575 0,-7 74.9999998,0 75.000004,0 0,7 0,7 -75.000004,0 -74.9999998,0 0,-7 z m 197.6666738,6.33333 c -0.36667,-0.36666 -0.66667,-3.51666 -0.66667,-7 l 0,-6.33333 299.5,0 299.5,0 0,7 0,7 -298.83333,0 c -164.35834,0 -299.13334,-0.3 -299.5,-0.66667 z M 52.410836,395.82959 c -32.523728,-6.86936 -53.0842699,-32.0609 -56.9791847,-69.81303 -2.8271847,-27.40297 5.7286749,-53.76611 23.0141267,-70.91335 13.270705,-13.1646 28.897508,-18.9952 50.965058,-19.01586 27.9403,-0.0262 47.154714,9.69591 61.054124,30.89204 9.14704,13.94893 13.48962,30.44653 13.36842,50.78717 -0.11935,20.0324 -4.85265,35.93515 -15.25507,51.25339 -8.04823,11.85155 -22.51331,21.77277 -37.667474,25.83516 -8.21802,2.203 -30.06527,2.75599 -38.5,0.97448 z m 26,-17.60789 c 20.53772,-3.25367 36.149954,-18.75625 42.115284,-41.81949 2.56606,-9.92093 2.72684,-27.56787 0.34745,-38.13565 -6.07936,-27.00071 -25.803824,-44.03796 -50.922833,-43.98522 -21.045179,0.0442 -37.629242,10.43864 -46.501313,29.14581 -5.535441,11.67172 -7.429024,22.09257 -6.773041,37.27369 0.953367,22.06334 8.653168,38.66877 22.542101,48.61441 11.20696,8.02513 24.987718,11.1568 39.192352,8.90645 z m 213.000004,16.94691 c -24.90405,-4.86361 -38.60702,-31.64739 -32.50578,-63.5357 4.77126,-24.93713 21.39184,-39.36635 45.3449,-39.36635 24.69638,0 39.89715,17.48958 41.88636,48.19326 l 0.57056,8.80674 -35.64802,0 -35.64802,0 0,4.3185 c 0,6.0128 2.44276,13.61218 5.91733,18.40868 6.453,8.90811 22.75005,12.5168 33.35099,7.38497 5.59529,-2.70863 12.57325,-10.07001 13.3829,-14.11825 l 0.59878,-2.9939 8.48341,0 8.48341,0 -0.6712,2.75 c -2.34893,9.62402 -9.6012,19.51038 -18.50189,25.22194 -8.00852,5.13905 -23.10135,7.26238 -35.04373,4.93011 z m 35.66397,-64.09146 c -0.79965,-6.75183 -4.97372,-15.18233 -9.06025,-18.29928 -16.70808,-12.74387 -40.74256,-2.25622 -44.18653,19.28117 l -0.67281,4.20752 27.2671,0 27.2671,0 -0.61461,-5.18941 z m 129.33603,-15.31059 0,-78.5 29.96146,0 29.96145,0 0.98456,3.75 c 0.54151,2.0625 6.44376,24.8974 13.11611,50.74423 6.67236,25.84683 12.32165,47.18433 12.55399,47.41667 0.23233,0.23234 0.61253,0.23234 0.84486,0 0.23234,-0.23234 5.88163,-21.56984 12.55399,-47.41667 6.67235,-25.84683 12.5746,-48.68173 13.11611,-50.74423 l 0.98456,-3.75 29.96145,0 29.96146,0 0,78.5 0,78.5 -19,0 -19,0 -0.0634,-59.25 c -0.0404,-37.76793 -0.402,-58.40525 -0.99734,-56.92008 -0.51367,1.28145 -7.91577,27.54602 -16.44909,58.36569 -8.53333,30.81968 -15.76109,56.43371 -16.06168,56.92008 -0.30058,0.48637 -7.24341,0.88431 -15.42849,0.88431 -8.18508,0 -15.12791,-0.39794 -15.4285,-0.88431 -0.30059,-0.48637 -7.52835,-26.1004 -16.06168,-56.92008 -8.53332,-30.81967 -15.93542,-57.08424 -16.44909,-58.36569 -0.59534,-1.48517 -0.95694,19.15215 -0.99734,56.92008 l -0.0634,59.25 -19,0 -19,0 0,-78.5 z m 194,0.0207 0,-78.5207 42.25,0.0174 c 47.21401,0.0194 51.08165,0.41365 63.36898,6.45954 11.45981,5.63871 18.19184,13.31952 22.52047,25.69439 1.80665,5.16495 2.21582,8.53534 2.22511,18.32871 0.0232,24.51641 -7.86167,39.5764 -24.95212,47.65789 -10.13849,4.79414 -17.45608,5.80546 -42.14584,5.82475 l -22.23339,0.0174 -0.26661,26.25 -0.2666,26.25 -20.25,0.27071 -20.25,0.2707 0,-78.5207 z m 79,-7.71522 c 14.62832,-6.51658 14.68705,-29.54523 0.0921,-36.12918 -3.8972,-1.75808 -7.127,-2.1348 -21.34215,-2.48934 l -16.74995,-0.41775 0,20.72882 0,20.72882 17.25,-0.43109 c 12.69888,-0.31736 18.17342,-0.84246 20.75,-1.99027 z m -371,36.19452 0,-49 7.5,0 7.5,0 0,6.63574 0,6.63574 4.96715,-5.04612 c 9.23424,-9.38104 20.86367,-12.87232 34.25229,-10.28291 7.65336,1.48019 13.49042,4.73239 18.04601,10.05456 6.44312,7.52735 6.73455,9.78265 6.73455,52.11782 l 0,37.88517 -7.9423,0 -7.94229,0 -0.30771,-35.75 c -0.30184,-35.06914 -0.3519,-35.83975 -2.62865,-40.46229 -2.93095,-5.95078 -7.45318,-8.82243 -14.95421,-9.49602 -11.75134,-1.05527 -20.13618,3.72229 -25.44338,14.49728 l -3.28146,6.66223 -0.32353,32.2744 -0.32353,32.2744 -7.92647,0 -7.92647,0 0,-49 z m 355,43.06955 c 0,-5.35502 -0.21832,-5.9725 -2.25,-6.36382 -1.2375,-0.23835 0.45,-0.42722 3.75,-0.41972 3.3,0.008 4.7625,0.20112 3.25,0.43024 -2.64422,0.40057 -2.75,0.64484 -2.75,6.35017 0,3.28905 -0.44569,5.93358 -1,5.93358 -0.55425,0 -1,-2.64348 -1,-5.93045 z m 8,-0.56955 c 0,-7.73326 2.15776,-9.04318 4.11815,-2.5 0.65913,2.2 1.50597,4 1.88185,4 0.37588,0 1.22272,-1.8 1.88185,-4 0.68692,-2.29272 1.82153,-4 2.65829,-4 1.15223,0 1.42444,1.42239 1.29176,6.75 -0.11364,4.56283 -0.2973,5.4539 -0.56683,2.75 -0.58249,-5.84359 -1.79845,-6.23824 -3.24975,-1.05472 -0.70138,2.5051 -1.58775,4.55472 -1.96971,4.55472 -0.38196,0 -1.40545,-2.1375 -2.27443,-4.75 l -1.57995,-4.75 -0.0956,4.75 c -0.14709,7.30647 -2.09563,5.67929 -2.09563,-1.75 z m -731.0000038,-190 0,-19.5 398.0000038,0 398,0 0,19.5 0,19.5 -398,0 -398.0000038,0 0,-19.5 z"
       style="fill:#000000" />
    <path
       style="opacity:1;fill:#ffffff;fill-opacity:1;stroke:#000000;stroke-width:2.85714293;stroke-miterlimit:4;stroke-dasharray:none;stroke-dashoffset:0;stroke-opacity:1"
       d="m 1.316123,19.761339 0,-18.5714282 397.142857,0 397.14286,0 0,18.5714282 0,18.571429 -397.14286,0 -397.142857,0 0,-18.571429 z"
       id="path6024"
       inkscape:connector-curvature="0"
       transform="translate(-9.5891638,177.26656)" />
    <path
       style="opacity:1;fill:#ffffff;fill-opacity:1;stroke:#000000;stroke-width:2.85714293;stroke-miterlimit:4;stroke-dasharray:none;stroke-dashoffset:0;stroke-opacity:1"
       d="M 54.868899,215.83103 C 23.631516,204.73313 5.6593352,176.43609 5.6477583,138.33277 5.640455,114.29516 13.101081,95.063287 28.411477,79.652852 42.519203,65.452943 57.04379,59.761339 79.173266,59.761339 c 22.384144,0 38.507874,6.365405 51.613134,20.376089 15.78785,16.878601 23.11284,39.186002 21.50944,65.504532 -1.91353,31.40921 -15.99313,54.40182 -40.83522,66.68578 -10.56587,5.22463 -10.94159,5.29547 -30.064898,5.66917 -15.64018,0.30563 -20.742909,-0.111 -26.526823,-2.16588 z m 47.443451,-18.97686 c 20.94567,-10.26936 31.77048,-33.01293 30.07986,-63.19955 C 130.83785,105.90097 117.36506,85.740379 95.843673,78.963668 90.30979,77.221144 84.83777,76.727845 75.823199,77.158837 61.925087,77.823314 54.292594,80.716708 44.637752,88.980894 37.863819,94.779128 29.42466,110.21666 27.187004,120.90308 c -3.489568,16.66521 -0.981514,40.32607 5.653086,53.33097 6.50495,12.75075 19.888584,23.40321 33.827352,26.92425 9.746067,2.46193 25.798051,0.52365 35.644908,-4.30413 z"
       id="path6026"
       inkscape:connector-curvature="0"
       transform="translate(-9.5891638,177.26656)" />
    <path
       style="opacity:1;fill:#ffffff;fill-opacity:1;stroke:#000000;stroke-width:2.85714293;stroke-miterlimit:4;stroke-dasharray:none;stroke-dashoffset:0;stroke-opacity:1"
       d="m 165.60184,201.18991 0,-82.85714 7.14285,0 7.14286,0 0,6.42857 c 0,3.53571 0.52259,6.42857 1.1613,6.42857 0.63871,0 3.04943,-1.98744 5.35714,-4.41655 10.07501,-10.60495 27.12237,-13.72364 40.83751,-7.47091 36.19923,16.50322 35.20231,77.45545 -1.54655,94.55772 -14.2465,6.63006 -34.58004,3.8345 -40.4476,-5.56095 -0.96985,-1.55298 -2.25158,-2.82359 -2.84829,-2.82359 -0.59672,0 -1.08494,17.67857 -1.08494,39.28571 l 0,39.28571 -7.85714,0 -7.85714,0 0,-82.85714 z m 49.28571,2.70653 c 7.91904,-2.16641 18.18622,-12.96289 20.63092,-21.6945 2.6828,-9.58199 1.41106,-28.694 -2.39629,-36.01203 -6.02376,-11.57816 -13.90312,-16.42857 -26.68779,-16.42857 -18.08192,0 -27.71453,16.00742 -26.26392,43.64524 0.48689,9.27638 1.3718,12.91819 4.3906,18.06939 6.85372,11.695 17.31575,15.97981 30.32648,12.42047 z"
       id="path6028"
       inkscape:connector-curvature="0"
       transform="translate(-9.5891638,177.26656)" />
    <path
       style="opacity:1;fill:#ffffff;fill-opacity:1;stroke:#000000;stroke-width:2.85714293;stroke-miterlimit:4;stroke-dasharray:none;stroke-dashoffset:0;stroke-opacity:1"
       d="m 1.316123,247.61848 0,-6.42857 74.285714,0 74.285713,0 0,6.42857 0,6.42857 -74.285713,0 -74.285714,0 0,-6.42857 z"
       id="path6030"
       inkscape:connector-curvature="0"
       transform="translate(-9.5891638,177.26656)" />
    <path
       style="opacity:1;fill:#ffffff;fill-opacity:1;stroke:#000000;stroke-width:2.85714293;stroke-miterlimit:4;stroke-dasharray:none;stroke-dashoffset:0;stroke-opacity:1"
       d="m 197.92327,249.58277 c -0.49108,-2.45536 -0.89286,-5.34822 -0.89286,-6.42857 0,-1.66042 46.2987,-1.96429 299.28571,-1.96429 l 299.28572,0 0,6.42857 0,6.42857 -298.39286,0 -298.39286,0 -0.89285,-4.46428 z"
       id="path6032"
       inkscape:connector-curvature="0"
       transform="translate(-9.5891638,177.26656)" />
    <path
       style="opacity:1;fill:#ffffff;fill-opacity:1;stroke:#000000;stroke-width:2.85714293;stroke-miterlimit:4;stroke-dasharray:none;stroke-dashoffset:0;stroke-opacity:1"
       d="m 300.45613,217.07125 c -13.44667,-3.48433 -25.35193,-15.33761 -29.88733,-29.75682 -1.84798,-5.8752 -2.27734,-11.07385 -1.78191,-21.57524 1.10307,-23.38149 8.94423,-37.62328 25.06602,-45.52704 6.94008,-3.4024 9.90687,-4.00028 19.60607,-3.95109 11.28257,0.0572 17.90088,2.19947 25.05813,8.11096 8.2882,6.8456 14.41823,21.0566 16.34385,37.88932 l 1.02141,8.92857 -35.85455,0 -35.85455,0 0,4.82039 c 0,10.47553 6.18065,21.66259 14.30453,25.89136 5.62266,2.92681 16.03455,3.97746 22.40825,2.2612 6.11947,-1.6478 17.57293,-12.41008 17.57293,-16.51246 0,-1.6869 1.78421,-2.17477 7.95341,-2.17477 7.57972,0 7.90836,0.15102 6.99451,3.21428 -1.58191,5.30268 -7.28545,14.39146 -11.60619,18.49484 -8.67443,8.23806 -28.97361,13.09209 -41.34458,9.8865 z m 37.06768,-62.66705 c -1.28,-9.07584 -6.51807,-17.89028 -12.72017,-21.40507 -10.55835,-5.98352 -26.04623,-3.48178 -34.49076,5.57125 -3.87448,4.15367 -7.56819,12.73061 -7.56819,17.57365 l 0,3.61731 27.76733,0 27.76733,0 -0.75554,-5.35714 z"
       id="path6034"
       inkscape:connector-curvature="0"
       transform="translate(-9.5891638,177.26656)" />
    <path
       style="opacity:1;fill:#ffffff;fill-opacity:1;stroke:#000000;stroke-width:2.85714293;stroke-miterlimit:4;stroke-dasharray:none;stroke-dashoffset:0;stroke-opacity:1"
       d="m 368.45898,166.9042 0,-48.57143 7.14286,0 7.14285,0 0,6.42857 c 0,3.53571 0.52259,6.42857 1.1613,6.42857 0.63872,0 3.04943,-1.98744 5.35715,-4.41655 6.77803,-7.13456 14.45763,-10.45385 24.19584,-10.45797 10.88363,-0.005 17.56675,2.30055 23.5442,8.12094 8.28981,8.07198 8.59866,9.95488 8.59866,52.42198 l 0,38.61732 -7.14286,0 -7.14286,0 0,-35.04589 c 0,-37.04782 -0.62938,-41.33425 -6.88772,-46.90878 -3.4308,-3.05593 -13.40482,-4.55872 -20.91072,-3.1506 -2.81588,0.52826 -7.24413,2.82567 -9.84055,5.10536 -8.34269,7.32498 -9.24904,11.50441 -10.30084,47.49991 l -0.94965,32.5 -6.98383,0 -6.98383,0 0,-48.57143 z"
       id="path6036"
       inkscape:connector-curvature="0"
       transform="translate(-9.5891638,177.26656)" />
    <path
       style="opacity:1;fill:#ffffff;fill-opacity:1;stroke:#000000;stroke-width:2.85714293;stroke-miterlimit:4;stroke-dasharray:none;stroke-dashoffset:0;stroke-opacity:1"
       d="m 467.03041,139.04705 0,-77.857139 29.28571,0 c 16.10715,0 29.28572,0.223074 29.28572,0.495721 0,1.469492 25.9936,100.259788 26.51831,100.784498 0.3435,0.3435 1.02689,0.22219 1.51865,-0.26956 0.80911,-0.80911 8.91667,-30.95413 22.07614,-82.082088 l 4.87189,-18.928571 29.65036,0 29.65036,0 0,77.857139 0,77.85715 -18.57143,0 -18.57143,0 -0.0219,-56.78572 c -0.012,-31.23214 -0.55759,-57.6305 -1.21234,-58.66301 -1.13765,-1.794012 -3.7983,7.0984 -26.05788,87.09051 l -7.41366,26.64177 -8.71855,0.78958 c -4.79521,0.43425 -11.5574,0.33831 -15.0271,-0.21322 l -6.30855,-1.00277 -15.95488,-56.78724 c -8.77518,-31.23297 -16.28025,-57.1126 -16.67792,-57.51028 -0.96959,-0.969585 -2.59938,54.70196 -2.60374,88.94038 l -0.004,27.5 -17.85714,0 -17.85714,0 0,-77.85715 z"
       id="path6038"
       inkscape:connector-curvature="0"
       transform="translate(-9.5891638,177.26656)" />
    <path
       style="opacity:1;fill:#ffffff;fill-opacity:1;stroke:#000000;stroke-width:2.85714293;stroke-miterlimit:4;stroke-dasharray:none;stroke-dashoffset:0;stroke-opacity:1"
       d="m 661.31612,139.16097 0,-78.150239 46.07143,0.446733 46.07143,0.446733 8.73919,4.038671 c 21.71686,10.036093 30.95238,30.289387 26.32419,57.728402 -2.23014,13.22177 -8.49738,23.83775 -17.71393,30.00532 -11.09414,7.42403 -18.54952,8.94189 -43.92047,8.94189 -12.36456,0 -23.49788,0.39021 -24.74071,0.86713 -1.94405,0.746 -2.2597,4.43772 -2.2597,26.42857 l 0,25.56145 -10.50473,0 c -5.7776,0 -14.45617,0.41301 -19.28571,0.9178 l -8.78099,0.91778 0,-78.15024 z m 80.1679,-8.77217 c 8.31987,-4.30237 11.64576,-19.69797 6.23433,-28.8588 -4.4948,-7.609073 -9.11517,-9.180419 -29.41492,-10.003741 l -18.41588,-0.746914 0,21.847495 0,21.8475 18.76351,-0.99057 c 11.94975,-0.63086 20.24128,-1.75476 22.83296,-3.09497 z"
       id="path6040"
       inkscape:connector-curvature="0"
       transform="translate(-9.5891638,177.26656)" />
  </g>
</svg>
