<?xml version="1.0" encoding="UTF-8" standalone="no"?>
<svg
   xmlns:dc="http://purl.org/dc/elements/1.1/"
   xmlns:cc="http://creativecommons.org/ns#"
   xmlns:rdf="http://www.w3.org/1999/02/22-rdf-syntax-ns#"
   xmlns:svg="http://www.w3.org/2000/svg"
   xmlns="http://www.w3.org/2000/svg"
   viewBox="0 0 450 270"
   height="270"
   width="450"
   xml:space="preserve"
   version="1.1"
   id="svg4155"><metadata
     id="metadata4161"><rdf:RDF><cc:Work
         rdf:about=""><dc:format>image/svg+xml</dc:format><dc:type
           rdf:resource="http://purl.org/dc/dcmitype/StillImage" /><dc:title></dc:title></cc:Work></rdf:RDF></metadata><defs
     id="defs4159" /><g
     transform="matrix(1.25,0,0,-1.25,0,270)"
     id="g4163"><g
       id="g4167"
       transform="matrix(1,0,0,-1,0,216)"><path
         d="m 48.051,138.699 3.699,0"
         style="fill:none;stroke:#000000;stroke-width:0.5;stroke-linecap:butt;stroke-linejoin:miter;stroke-miterlimit:3.79999995;stroke-dasharray:none;stroke-opacity:1"
         id="path4169" /></g><text
       y="-74.300781"
       x="37.828968"
       transform="scale(1,-1)"
       style="font-variant:normal;font-weight:normal;font-size:8px;font-family:'DejaVu Serif';-inkscape-font-specification:DejaVuSerif;writing-mode:lr-tb;fill:#9400d3;fill-opacity:1;fill-rule:nonzero;stroke:none;"
       id="text4171"><tspan
         style="fill:#9400d3;fill-opacity:1;"
         x="37.828968"
         y="-74.300781"
         id="tspan4173">0</tspan></text>
<g
       id="g4175"
       transform="matrix(1,0,0,-1,0,216)"><path
         d="m 48.051,120.602 3.699,0"
         style="fill:none;stroke:#000000;stroke-width:0.5;stroke-linecap:butt;stroke-linejoin:miter;stroke-miterlimit:3.79999995;stroke-dasharray:none;stroke-opacity:1"
         id="path4177" /></g><text
       y="-92.398438"
       x="22.559439"
       transform="scale(1,-1)"
       style="font-variant:normal;font-weight:normal;font-size:8px;font-family:'DejaVu Serif';-inkscape-font-specification:DejaVuSerif;writing-mode:lr-tb;fill:#9400d3;fill-opacity:1;fill-rule:nonzero;stroke:none;"
       id="text4179"><tspan
         x="22.559439 27.647438 32.735439 37.823437"
         y="-92.398438"
         id="tspan4181">1000</tspan></text>
<g
       id="g4183"
       transform="matrix(1,0,0,-1,0,216)"><path
         d="m 48.051,102.5 3.699,0"
         style="fill:none;stroke:#000000;stroke-width:0.5;stroke-linecap:butt;stroke-linejoin:miter;stroke-miterlimit:3.79999995;stroke-dasharray:none;stroke-opacity:1"
         id="path4185" /></g><text
       y="-110.5"
       x="22.559439"
       transform="scale(1,-1)"
       style="font-variant:normal;font-weight:normal;font-size:8px;font-family:'DejaVu Serif';-inkscape-font-specification:DejaVuSerif;writing-mode:lr-tb;fill:#9400d3;fill-opacity:1;fill-rule:nonzero;stroke:none;"
       id="text4187"><tspan
         x="22.559439 27.647438 32.735439 37.823437"
         y="-110.5"
         id="tspan4189">2000</tspan></text>
<g
       id="g4191"
       transform="matrix(1,0,0,-1,0,216)"><path
         d="m 48.051,84.398 3.699,0"
         style="fill:none;stroke:#000000;stroke-width:0.5;stroke-linecap:butt;stroke-linejoin:miter;stroke-miterlimit:3.79999995;stroke-dasharray:none;stroke-opacity:1"
         id="path4193" /></g><text
       y="-128.59766"
       x="22.559439"
       transform="scale(1,-1)"
       style="font-variant:normal;font-weight:normal;font-size:8px;font-family:'DejaVu Serif';-inkscape-font-specification:DejaVuSerif;writing-mode:lr-tb;fill:#9400d3;fill-opacity:1;fill-rule:nonzero;stroke:none;"
       id="text4195"><tspan
         x="22.559439 27.647438 32.735439 37.823437"
         y="-128.59766"
         id="tspan4197">3000</tspan></text>
<g
       id="g4199"
       transform="matrix(1,0,0,-1,0,216)"><path
         d="m 48.051,66.301 3.699,0"
         style="fill:none;stroke:#000000;stroke-width:0.5;stroke-linecap:butt;stroke-linejoin:miter;stroke-miterlimit:3.79999995;stroke-dasharray:none;stroke-opacity:1"
         id="path4201" /></g><text
       y="-146.69922"
       x="22.559439"
       transform="scale(1,-1)"
       style="font-variant:normal;font-weight:normal;font-size:8px;font-family:'DejaVu Serif';-inkscape-font-specification:DejaVuSerif;writing-mode:lr-tb;fill:#9400d3;fill-opacity:1;fill-rule:nonzero;stroke:none;"
       id="text4203"><tspan
         x="22.559439 27.647438 32.735439 37.823437"
         y="-146.69922"
         id="tspan4205">4000</tspan></text>
<g
       id="g4207"
       transform="matrix(1,0,0,-1,0,216)"><path
         d="m 48.051,48.199 3.699,0"
         style="fill:none;stroke:#000000;stroke-width:0.5;stroke-linecap:butt;stroke-linejoin:miter;stroke-miterlimit:3.79999995;stroke-dasharray:none;stroke-opacity:1"
         id="path4209" /></g><text
       y="-164.80078"
       x="22.559439"
       transform="scale(1,-1)"
       style="font-variant:normal;font-weight:normal;font-size:8px;font-family:'DejaVu Serif';-inkscape-font-specification:DejaVuSerif;writing-mode:lr-tb;fill:#9400d3;fill-opacity:1;fill-rule:nonzero;stroke:none;"
       id="text4211"><tspan
         x="22.559439 27.647438 32.735439 37.823437"
         y="-164.80078"
         id="tspan4213">5000</tspan></text>
<g
       id="g4215"
       transform="matrix(1,0,0,-1,0,216)"><path
         d="m 48.051,30.102 3.699,0"
         style="fill:none;stroke:#000000;stroke-width:0.5;stroke-linecap:butt;stroke-linejoin:miter;stroke-miterlimit:3.79999995;stroke-dasharray:none;stroke-opacity:1"
         id="path4217" /></g><text
       y="-182.89844"
       x="22.559439"
       transform="scale(1,-1)"
       style="font-variant:normal;font-weight:normal;font-size:8px;font-family:'DejaVu Serif';-inkscape-font-specification:DejaVuSerif;writing-mode:lr-tb;fill:#9400d3;fill-opacity:1;fill-rule:nonzero;stroke:none;"
       id="text4219"><tspan
         x="22.559439 27.647438 32.735439 37.823437"
         y="-182.89844"
         id="tspan4221">6000</tspan></text>
<g
       id="g4223"
       transform="matrix(1,0,0,-1,0,216)"><path
         d="m 82.051,138.699 0,-87.949"
         style="fill:none;stroke:#000000;stroke-width:0.5;stroke-linecap:butt;stroke-linejoin:miter;stroke-miterlimit:3.79999995;stroke-dasharray:0.2, 2;stroke-dashoffset:0;stroke-opacity:1"
         id="path4225" /></g><g
       id="g4227"
       transform="matrix(1,0,0,-1,0,216)"><path
         d="m 82.051,32.148 0,-3.699"
         style="fill:none;stroke:#000000;stroke-width:0.5;stroke-linecap:butt;stroke-linejoin:miter;stroke-miterlimit:3.79999995;stroke-dasharray:0.2, 2;stroke-dashoffset:0;stroke-opacity:1"
         id="path4229" /></g><g
       id="g4231"
       transform="matrix(1,0,0,-1,0,216)"><path
         d="m 82.051,138.699 0,-3.699"
         style="fill:none;stroke:#000000;stroke-width:0.5;stroke-linecap:butt;stroke-linejoin:miter;stroke-miterlimit:3.79999995;stroke-dasharray:none;stroke-opacity:1"
         id="path4233" /></g><g
       id="g4235"
       transform="matrix(1,0,0,-1,0,216)"><path
         d="m 82.051,28.449 0,3.699"
         style="fill:none;stroke:#000000;stroke-width:0.5;stroke-linecap:butt;stroke-linejoin:miter;stroke-miterlimit:3.79999995;stroke-dasharray:none;stroke-opacity:1"
         id="path4237" /></g><text
       y="-102.75582"
       x="3.6404955"
       transform="matrix(0.70710678,-0.70710678,-0.70710678,-0.70710678,0,0)"
       style="font-variant:normal;font-weight:normal;font-size:7.99999952px;font-family:'DejaVu Serif';-inkscape-font-specification:DejaVuSerif;writing-mode:lr-tb;fill:#000000;fill-opacity:1;fill-rule:nonzero;stroke:none"
       id="text4239"><tspan
         x="3.6404955 9.4164953 11.968495 17.088495 21.856495 26.696495 31.464495 34.584496 41.136494 49.320492 54.696491 59.784492"
         y="-102.75582"
         id="tspan4241">Alpaka(OMP2)</tspan><tspan
         x="10.217143 12.753143 17.569143 22.721142 25.257143 31.809141 36.929142 40.137142 44.865143 48.68914 53.505142 58.657143 61.193142 66.281143 71.369141 76.457138"
         y="-96.179169"
         id="tspan4243"> on Opteron 6276</tspan></text>
<g
       id="g4245"
       transform="matrix(1,0,0,-1,0,216)"><path
         d="m 130.648,138.699 0,-87.949"
         style="fill:none;stroke:#000000;stroke-width:0.5;stroke-linecap:butt;stroke-linejoin:miter;stroke-miterlimit:3.79999995;stroke-dasharray:0.2, 2;stroke-dashoffset:0;stroke-opacity:1"
         id="path4247" /></g><g
       id="g4249"
       transform="matrix(1,0,0,-1,0,216)"><path
         d="m 130.648,32.148 0,-3.699"
         style="fill:none;stroke:#000000;stroke-width:0.5;stroke-linecap:butt;stroke-linejoin:miter;stroke-miterlimit:3.79999995;stroke-dasharray:0.2, 2;stroke-dashoffset:0;stroke-opacity:1"
         id="path4251" /></g><g
       id="g4253"
       transform="matrix(1,0,0,-1,0,216)"><path
         d="m 130.648,138.699 0,-3.699"
         style="fill:none;stroke:#000000;stroke-width:0.5;stroke-linecap:butt;stroke-linejoin:miter;stroke-miterlimit:3.79999995;stroke-dasharray:none;stroke-opacity:1"
         id="path4255" /></g><g
       id="g4257"
       transform="matrix(1,0,0,-1,0,216)"><path
         d="m 130.648,28.449 0,3.699"
         style="fill:none;stroke:#000000;stroke-width:0.5;stroke-linecap:butt;stroke-linejoin:miter;stroke-miterlimit:3.79999995;stroke-dasharray:none;stroke-opacity:1"
         id="path4259" /></g><text
       y="-137.12231"
       x="38.006992"
       transform="matrix(0.70710678,-0.70710678,-0.70710678,-0.70710678,0,0)"
       style="font-variant:normal;font-weight:normal;font-size:7.99999952px;font-family:'DejaVu Serif';-inkscape-font-specification:DejaVuSerif;writing-mode:lr-tb;fill:#000000;fill-opacity:1;fill-rule:nonzero;stroke:none"
       id="text4261"><tspan
         x="38.006992 43.78299 46.334991 51.45499 56.222992 61.062992 65.830994 68.950989 75.502991 83.686989 89.062988 94.150986"
         y="-137.12231"
         id="tspan4263">Alpaka(OMP2)</tspan><tspan
         x="44.583641 47.11964 51.935638 57.087639 59.623638 64.671638 69.48764 76.327637 81.055634 84.879639 89.967636 92.503639 97.591637 102.67963 107.76763 112.85564 115.55164 120.63963 125.72763"
         y="-130.54567"
         id="tspan4265"> on Power8 8247-42L</tspan></text>
<g
       id="g4267"
       transform="matrix(1,0,0,-1,0,216)"><path
         d="m 179.199,138.699 0,-87.949"
         style="fill:none;stroke:#000000;stroke-width:0.5;stroke-linecap:butt;stroke-linejoin:miter;stroke-miterlimit:3.79999995;stroke-dasharray:0.2, 2;stroke-dashoffset:0;stroke-opacity:1"
         id="path4269" /></g><g
       id="g4271"
       transform="matrix(1,0,0,-1,0,216)"><path
         d="m 179.199,32.148 0,-3.699"
         style="fill:none;stroke:#000000;stroke-width:0.5;stroke-linecap:butt;stroke-linejoin:miter;stroke-miterlimit:3.79999995;stroke-dasharray:0.2, 2;stroke-dashoffset:0;stroke-opacity:1"
         id="path4273" /></g><g
       id="g4275"
       transform="matrix(1,0,0,-1,0,216)"><path
         d="m 179.199,138.699 0,-3.699"
         style="fill:none;stroke:#000000;stroke-width:0.5;stroke-linecap:butt;stroke-linejoin:miter;stroke-miterlimit:3.79999995;stroke-dasharray:none;stroke-opacity:1"
         id="path4277" /></g><g
       id="g4279"
       transform="matrix(1,0,0,-1,0,216)"><path
         d="m 179.199,28.449 0,3.699"
         style="fill:none;stroke:#000000;stroke-width:0.5;stroke-linecap:butt;stroke-linejoin:miter;stroke-miterlimit:3.79999995;stroke-dasharray:none;stroke-opacity:1"
         id="path4281" /></g><text
       y="-171.4529"
       x="72.337578"
       transform="matrix(0.70710678,-0.70710678,-0.70710678,-0.70710678,0,0)"
       style="font-variant:normal;font-weight:normal;font-size:7.99999952px;font-family:'DejaVu Serif';-inkscape-font-specification:DejaVuSerif;writing-mode:lr-tb;fill:#000000;fill-opacity:1;fill-rule:nonzero;stroke:none"
       id="text4283"><tspan
         x="72.337578 78.113579 80.665581 85.785576 90.553574 95.393578 100.16158 103.28158 109.83357 118.01757 123.39357 128.48157"
         y="-171.4529"
         id="tspan4285">Alpaka(OMP2)</tspan><tspan
         x="78.914223 81.450226 86.266228 91.418221 93.954224 99.786224 104.87422 109.96222 115.05022 120.13822 124.65022"
         y="-164.87625"
         id="tspan4287"> on E2698v3</tspan></text>
<g
       id="g4289"
       transform="matrix(1,0,0,-1,0,216)"><path
         d="m 227.75,138.699 0,-87.949"
         style="fill:none;stroke:#000000;stroke-width:0.5;stroke-linecap:butt;stroke-linejoin:miter;stroke-miterlimit:3.79999995;stroke-dasharray:0.2, 2;stroke-dashoffset:0;stroke-opacity:1"
         id="path4291" /></g><g
       id="g4293"
       transform="matrix(1,0,0,-1,0,216)"><path
         d="m 227.75,32.148 0,-3.699"
         style="fill:none;stroke:#000000;stroke-width:0.5;stroke-linecap:butt;stroke-linejoin:miter;stroke-miterlimit:3.79999995;stroke-dasharray:0.2, 2;stroke-dashoffset:0;stroke-opacity:1"
         id="path4295" /></g><g
       id="g4297"
       transform="matrix(1,0,0,-1,0,216)"><path
         d="m 227.75,138.699 0,-3.699"
         style="fill:none;stroke:#000000;stroke-width:0.5;stroke-linecap:butt;stroke-linejoin:miter;stroke-miterlimit:3.79999995;stroke-dasharray:none;stroke-opacity:1"
         id="path4299" /></g><g
       id="g4301"
       transform="matrix(1,0,0,-1,0,216)"><path
         d="m 227.75,28.449 0,3.699"
         style="fill:none;stroke:#000000;stroke-width:0.5;stroke-linecap:butt;stroke-linejoin:miter;stroke-miterlimit:3.79999995;stroke-dasharray:none;stroke-opacity:1"
         id="path4303" /></g><text
       y="-205.78349"
       x="106.66816"
       transform="matrix(0.70710678,-0.70710678,-0.70710678,-0.70710678,0,0)"
       style="font-variant:normal;font-weight:normal;font-size:7.99999952px;font-family:'DejaVu Serif';-inkscape-font-specification:DejaVuSerif;writing-mode:lr-tb;fill:#000000;fill-opacity:1;fill-rule:nonzero;stroke:none"
       id="text4305"><tspan
         x="106.66816 112.44416 114.99616 120.11617 124.88416 129.72417 134.49216 137.61217 143.73216 150.46815 156.87616 162.65216"
         y="-205.78349"
         id="tspan4307">Alpaka(CUDA)</tspan><tspan
         x="113.24481 115.78081 120.59681 125.74881 128.28481 134.2608 139.3488"
         y="-199.20683"
         id="tspan4309"> on K80</tspan></text>
<g
       id="g4311"
       transform="matrix(1,0,0,-1,0,216)"><path
         d="m 276.352,138.699 0,-87.949"
         style="fill:none;stroke:#000000;stroke-width:0.5;stroke-linecap:butt;stroke-linejoin:miter;stroke-miterlimit:3.79999995;stroke-dasharray:0.2, 2;stroke-dashoffset:0;stroke-opacity:1"
         id="path4313" /></g><g
       id="g4315"
       transform="matrix(1,0,0,-1,0,216)"><path
         d="m 276.352,32.148 0,-3.699"
         style="fill:none;stroke:#000000;stroke-width:0.5;stroke-linecap:butt;stroke-linejoin:miter;stroke-miterlimit:3.79999995;stroke-dasharray:0.2, 2;stroke-dashoffset:0;stroke-opacity:1"
         id="path4317" /></g><g
       id="g4319"
       transform="matrix(1,0,0,-1,0,216)"><path
         d="m 276.352,138.699 0,-3.699"
         style="fill:none;stroke:#000000;stroke-width:0.5;stroke-linecap:butt;stroke-linejoin:miter;stroke-miterlimit:3.79999995;stroke-dasharray:none;stroke-opacity:1"
         id="path4321" /></g><g
       id="g4323"
       transform="matrix(1,0,0,-1,0,216)"><path
         d="m 276.352,28.449 0,3.699"
         style="fill:none;stroke:#000000;stroke-width:0.5;stroke-linecap:butt;stroke-linejoin:miter;stroke-miterlimit:3.79999995;stroke-dasharray:none;stroke-opacity:1"
         id="path4325" /></g><text
       y="-243.43692"
       x="144.32159"
       transform="matrix(0.70710678,-0.70710678,-0.70710678,-0.70710678,0,0)"
       style="font-variant:normal;font-weight:normal;font-size:7.99999952px;font-family:'DejaVu Serif';-inkscape-font-specification:DejaVuSerif;writing-mode:lr-tb;fill:#000000;fill-opacity:1;fill-rule:nonzero;stroke:none"
       id="text4327"><tspan
         x="144.32159 150.4416 157.1776 163.5856 169.3616 171.8976 177.04959 181.8176 185.0256 187.57759 192.0896"
         y="-243.43692"
         id="tspan4329">CUDA native</tspan></text>
<g
       id="g4331"
       transform="matrix(1,0,0,-1,0,216)"><path
         d="m 48.051,133.051 262.301,0"
         style="fill:none;stroke:#000000;stroke-width:0.5;stroke-linecap:butt;stroke-linejoin:miter;stroke-miterlimit:3.79999995;stroke-dasharray:0.2, 2;stroke-dashoffset:0;stroke-opacity:1"
         id="path4333" /></g><g
       style="fill:#009e73;fill-opacity:1"
       id="g4335"
       transform="matrix(1,0,0,-1,0,216)"><path
         d="m 310.352,133.051 -3.704,0"
         style="fill:#009e73;stroke:#000000;stroke-width:0.5;stroke-linecap:butt;stroke-linejoin:miter;stroke-miterlimit:3.79999995;stroke-dasharray:none;stroke-opacity:1;fill-opacity:1"
         id="path4337" /></g><text
       y="-79.949219"
       x="317.96179"
       transform="scale(1,-1)"
       style="font-variant:normal;font-weight:normal;font-size:8px;font-family:'DejaVu Serif';-inkscape-font-specification:DejaVuSerif;writing-mode:lr-tb;fill:#009e73;fill-opacity:1;fill-rule:nonzero;stroke:none;"
       id="text4339"><tspan
         style="fill:#009e73;fill-opacity:1;"
         x="317.96179"
         y="-79.949219"
         id="tspan4341">1</tspan></text>
<g
       id="g4343"
       transform="matrix(1,0,0,-1,0,216)"><path
         d="m 48.051,110.551 262.301,0"
         style="fill:none;stroke:#000000;stroke-width:0.5;stroke-linecap:butt;stroke-linejoin:miter;stroke-miterlimit:3.79999995;stroke-dasharray:0.2, 2;stroke-dashoffset:0;stroke-opacity:1"
         id="path4345" /></g><g
       style="fill:#009e73;fill-opacity:1"
       id="g4347"
       transform="matrix(1,0,0,-1,0,216)"><path
         d="m 310.352,110.551 -3.704,0"
         style="fill:#009e73;stroke:#000000;stroke-width:0.5;stroke-linecap:butt;stroke-linejoin:miter;stroke-miterlimit:3.79999995;stroke-dasharray:none;stroke-opacity:1;fill-opacity:1"
         id="path4349" /></g><text
       y="-102.44922"
       x="317.96179"
       transform="scale(1,-1)"
       style="font-variant:normal;font-weight:normal;font-size:8px;font-family:'DejaVu Serif';-inkscape-font-specification:DejaVuSerif;writing-mode:lr-tb;fill:#009e73;fill-opacity:1;fill-rule:nonzero;stroke:none;"
       id="text4351"><tspan
         style="fill:#009e73;fill-opacity:1;"
         x="317.96179"
         y="-102.44922"
         id="tspan4353">5</tspan></text>
<g
       id="g4355"
       transform="matrix(1,0,0,-1,0,216)"><path
         d="m 48.051,88.051 262.301,0"
         style="fill:none;stroke:#000000;stroke-width:0.5;stroke-linecap:butt;stroke-linejoin:miter;stroke-miterlimit:3.79999995;stroke-dasharray:0.2, 2;stroke-dashoffset:0;stroke-opacity:1"
         id="path4357" /></g><g
       style="fill:#009e73;fill-opacity:1"
       id="g4359"
       transform="matrix(1,0,0,-1,0,216)"><path
         d="m 310.352,88.051 -3.704,0"
         style="fill:#009e73;stroke:#000000;stroke-width:0.5;stroke-linecap:butt;stroke-linejoin:miter;stroke-miterlimit:3.79999995;stroke-dasharray:none;stroke-opacity:1;fill-opacity:1"
         id="path4361" /></g><text
       y="-124.94922"
       x="317.96179"
       transform="scale(1,-1)"
       style="font-variant:normal;font-weight:normal;font-size:8px;font-family:'DejaVu Serif';-inkscape-font-specification:DejaVuSerif;writing-mode:lr-tb;fill:#009e73;fill-opacity:1;fill-rule:nonzero;stroke:none;"
       id="text4363"><tspan
         style="fill:#009e73;fill-opacity:1;"
         x="317.96179"
         y="-124.94922"
         id="tspan4365">9</tspan></text>
<g
       id="g4367"
       transform="matrix(1,0,0,-1,0,216)"><path
         d="m 48.051,65.551 262.301,0"
         style="fill:none;stroke:#000000;stroke-width:0.5;stroke-linecap:butt;stroke-linejoin:miter;stroke-miterlimit:3.79999995;stroke-dasharray:0.2, 2;stroke-dashoffset:0;stroke-opacity:1"
         id="path4369" /></g><g
       style="fill:#009e73;fill-opacity:1"
       id="g4371"
       transform="matrix(1,0,0,-1,0,216)"><path
         d="m 310.352,65.551 -3.704,0"
         style="fill:#009e73;stroke:#000000;stroke-width:0.5;stroke-linecap:butt;stroke-linejoin:miter;stroke-miterlimit:3.79999995;stroke-dasharray:none;stroke-opacity:1;fill-opacity:1"
         id="path4373" /></g><text
       y="-147.44922"
       x="317.96179"
       transform="scale(1,-1)"
       style="font-variant:normal;font-weight:normal;font-size:8px;font-family:'DejaVu Serif';-inkscape-font-specification:DejaVuSerif;writing-mode:lr-tb;fill:#009e73;fill-opacity:1;fill-rule:nonzero;stroke:none;"
       id="text4375"><tspan
         x="317.96179 323.04977"
         y="-147.44922"
         id="tspan4377">13</tspan></text>
<g
       id="g4379"
       transform="matrix(1,0,0,-1,0,216)"><path
         d="m 48.051,43.051 3.597,0"
         style="fill:none;stroke:#000000;stroke-width:0.5;stroke-linecap:butt;stroke-linejoin:miter;stroke-miterlimit:3.79999995;stroke-dasharray:0.2, 2;stroke-dashoffset:0;stroke-opacity:1"
         id="path4381" /></g><g
       id="g4383"
       transform="matrix(1,0,0,-1,0,216)"><path
         d="m 305.25,43.051 5.102,0"
         style="fill:none;stroke:#000000;stroke-width:0.5;stroke-linecap:butt;stroke-linejoin:miter;stroke-miterlimit:3.79999995;stroke-dasharray:0.2, 2;stroke-dashoffset:0;stroke-opacity:1"
         id="path4385" /></g><g
       style="fill:#009e73;fill-opacity:1"
       id="g4387"
       transform="matrix(1,0,0,-1,0,216)"><path
         d="m 310.352,43.051 -3.704,0"
         style="fill:#009e73;stroke:#000000;stroke-width:0.5;stroke-linecap:butt;stroke-linejoin:miter;stroke-miterlimit:3.79999995;stroke-dasharray:none;stroke-opacity:1;fill-opacity:1"
         id="path4389" /></g><text
       y="-169.94922"
       x="317.96179"
       transform="scale(1,-1)"
       style="font-variant:normal;font-weight:normal;font-size:8px;font-family:'DejaVu Serif';-inkscape-font-specification:DejaVuSerif;writing-mode:lr-tb;fill:#009e73;fill-opacity:1;fill-rule:nonzero;stroke:none;"
       id="text4391"><tspan
         x="317.96179 323.04977"
         y="-169.94922"
         id="tspan4393">17</tspan></text>
<g
       id="g4395"
       transform="matrix(1,0,0,-1,0,216)"><path
         d="m 48.051,28.449 262.301,0 0,110.25 -262.301,0 0,-110.25 z"
         style="fill:none;stroke:#000000;stroke-width:0.5;stroke-linecap:butt;stroke-linejoin:miter;stroke-miterlimit:3.79999995;stroke-dasharray:none;stroke-opacity:1"
         id="path4397" /></g><text
       y="10.699219"
       x="87.847656"
       transform="matrix(0,1,1,0,0,0)"
       style="font-variant:normal;font-weight:normal;font-size:8px;font-family:'DejaVu Serif';-inkscape-font-specification:DejaVuSerif;writing-mode:lr-tb;fill:#9400d3;fill-opacity:1;fill-rule:nonzero;stroke:none;"
       id="text4399"><tspan
         x="87.847656 92.863655 97.59166 101.41566 104.37566 109.19166 113.01566 120.59966 125.36765 130.51965 134.99965 139.72766 142.26366 145.38365"
         y="10.699219"
         id="tspan4401">Performance [G</tspan></text>
<text
       y="10.699219"
       x="151.76765"
       transform="matrix(0,1,1,0,0,0)"
       style="font-variant:normal;font-weight:normal;font-size:8px;font-family:'DejaVu Serif';-inkscape-font-specification:DejaVuSerif;writing-mode:lr-tb;fill:#9400d3;fill-opacity:1;fill-rule:nonzero;stroke:none;"
       id="text4403"><tspan
         style="fill:#9400d3;fill-opacity:1;"
         x="151.76765"
         y="10.699219"
         id="tspan4405">ﬂ</tspan></text>
<text
       y="10.699219"
       x="157.09566"
       transform="matrix(0,1,1,0,0,0)"
       style="font-variant:normal;font-weight:normal;font-size:8px;font-family:'DejaVu Serif';-inkscape-font-specification:DejaVuSerif;writing-mode:lr-tb;fill:#9400d3;fill-opacity:1;fill-rule:nonzero;stroke:none;"
       id="text4407"><tspan
         style="fill:#9400d3;fill-opacity:1;"
         x="157.09566 161.91167 167.03166 169.71967 173.82365"
         y="10.699219"
         id="tspan4409">op/s]</tspan><tspan
         style="fill:#009e73;fill-opacity:1"
         x="114.69141 120.17141 125.29141 130.01941 134.74741 139.86742 145.01941"
         y="343.44922"
         id="tspan4411">Speedup</tspan></text>
<text
       y="-198.5"
       x="86.046875"
       transform="scale(1,-1)"
       style="font-variant:normal;font-weight:normal;font-size:8px;font-family:'DejaVu Serif';-inkscape-font-specification:DejaVuSerif;writing-mode:lr-tb;fill:#000000;fill-opacity:1;fill-rule:nonzero;stroke:none"
       id="text4413"><tspan
         x="86.046875 91.422874 94.582878 100.70287 105.51888 110.67088 117.05487 122.28688 129.02287 131.55887 136.67888 141.49487 145.31888 148.52687 153.25488 158.37488 160.91087 164.11887 168.93488 171.47089 177.24687 179.79887 184.91888 189.68687 194.52689 199.29488 201.83087 204.95087 209.05487 211.60687 216.75888 221.87888 224.43088 229.15887 231.69487 236.81488 240.63887 245.36688 249.84688 252.39888 256.50287 259.05487 263.87088 269.02289"
         y="-198.5"
         id="tspan4415">PIConGPU ported to Alpaka (single precision)</tspan><tspan
         x="83.144531 90.120529 94.888535 98.712532 103.83253 110.67253 115.44053 119.26453 123.99253 126.52853 131.64853 136.37653 141.14453 145.98453 148.52054 153.64053 158.36853 162.19254 165.15253 169.96854 173.79254 181.37653 186.14453 191.29654 195.77652 200.50453 203.04053 206.16054 210.26453 212.81653 217.96854 223.08853 225.64053 230.36853 232.90453 238.02454 241.84853 246.57654 251.05653 253.60854 257.71252 262.52853 267.68054"
         y="-176.19922"
         id="tspan4417">Hardware peak performance (single precison)</tspan></text>
<path
       d="m 276.051,181.547 24.102,0 0,-4.648 -24.102,0 0,4.648 z"
       style="fill:#9400d3;fill-opacity:1;fill-rule:nonzero;stroke:none"
       id="path4419" /><g
       id="g4421"
       transform="matrix(1,0,0,-1,0,216)"><path
         d="m 276.051,34.5 24.098,0 0,4.602 -24.098,0 0,-4.602 z"
         style="fill:none;stroke:#9400d3;stroke-width:0.5;stroke-linecap:butt;stroke-linejoin:miter;stroke-miterlimit:3.79999995;stroke-dasharray:none;stroke-opacity:1"
         id="path4423" /></g><path
       d="m 63.852,94.75 17.051,0 0,-17.449 -17.051,0 0,17.449 z"
       style="fill:#9400d3;fill-opacity:1;fill-rule:nonzero;stroke:none"
       id="path4425" /><g
       id="g4427"
       transform="matrix(1,0,0,-1,0,216)"><path
         d="m 63.852,121.301 17,0 0,17.398 -17,0 0,-17.398 z"
         style="fill:none;stroke:#9400d3;stroke-width:0.5;stroke-linecap:butt;stroke-linejoin:miter;stroke-miterlimit:3.79999995;stroke-dasharray:none;stroke-opacity:1"
         id="path4429" /></g><path
       d="m 112.398,97.652 17.051,0 0,-20.352 -17.051,0 0,20.352 z"
       style="fill:#9400d3;fill-opacity:1;fill-rule:nonzero;stroke:none"
       id="path4431" /><g
       id="g4433"
       transform="matrix(1,0,0,-1,0,216)"><path
         d="m 112.398,118.398 17,0 0,20.301 -17,0 0,-20.301 z"
         style="fill:none;stroke:#9400d3;stroke-width:0.5;stroke-linecap:butt;stroke-linejoin:miter;stroke-miterlimit:3.79999995;stroke-dasharray:none;stroke-opacity:1"
         id="path4435" /></g><path
       d="m 161,119.949 17.051,0 0,-42.648 -17.051,0 0,42.648 z"
       style="fill:#9400d3;fill-opacity:1;fill-rule:nonzero;stroke:none"
       id="path4437" /><g
       id="g4439"
       transform="matrix(1,0,0,-1,0,216)"><path
         d="m 161,96.102 17,0 0,42.598 -17,0 0,-42.598 z"
         style="fill:none;stroke:#9400d3;stroke-width:0.5;stroke-linecap:butt;stroke-linejoin:miter;stroke-miterlimit:3.79999995;stroke-dasharray:none;stroke-opacity:1"
         id="path4441" /></g><path
       d="m 209.551,156.102 17.051,0 0,-78.801 -17.051,0 0,78.801 z"
       style="fill:#9400d3;fill-opacity:1;fill-rule:nonzero;stroke:none"
       id="path4443" /><g
       id="g4445"
       transform="matrix(1,0,0,-1,0,216)"><path
         d="m 209.551,59.949 17,0 0,78.75 -17,0 0,-78.75 z"
         style="fill:none;stroke:#9400d3;stroke-width:0.5;stroke-linecap:butt;stroke-linejoin:miter;stroke-miterlimit:3.79999995;stroke-dasharray:none;stroke-opacity:1"
         id="path4447" /></g><path
       d="m 258.148,156.102 17.051,0 0,-78.801 -17.051,0 0,78.801 z"
       style="fill:#9400d3;fill-opacity:1;fill-rule:nonzero;stroke:none"
       id="path4449" /><g
       id="g4451"
       transform="matrix(1,0,0,-1,0,216)"><path
         d="m 258.148,59.949 17,0 0,78.75 -17,0 0,-78.75 z"
         style="fill:none;stroke:#9400d3;stroke-width:0.5;stroke-linecap:butt;stroke-linejoin:miter;stroke-miterlimit:3.79999995;stroke-dasharray:none;stroke-opacity:1"
         id="path4453" /></g><text
       y="-166.89844"
       x="170.64453"
       transform="scale(1,-1)"
       style="font-variant:normal;font-weight:normal;font-size:8px;font-family:'DejaVu Serif';-inkscape-font-specification:DejaVuSerif;writing-mode:lr-tb;fill:#000000;fill-opacity:1;fill-rule:nonzero;stroke:none"
       id="text4455"><tspan
         x="170.64453 176.12453 181.24454 185.97253 190.70053 195.82053 200.97253 206.09253 208.62852 211.83653 216.65253 219.18852 223.95653 231.54053 236.66052 239.19653 244.01253 249.13252 252.34053 257.06854 260.89252 265.70853"
         y="-166.89844"
         id="tspan4457">Speedup to amd opteron</tspan></text>
<path
       d="m 276.051,172.25 24.102,0 0,-4.648 -24.102,0 0,4.648 z"
       style="fill:#009e73;fill-opacity:1;fill-rule:nonzero;stroke:none"
       id="path4459" /><g
       id="g4461"
       transform="matrix(1,0,0,-1,0,216)"><path
         d="m 276.051,43.801 24.098,0 0,4.598 -24.098,0 0,-4.598 z"
         style="fill:none;stroke:#009e73;stroke-width:0.5;stroke-linecap:butt;stroke-linejoin:miter;stroke-miterlimit:3.79999995;stroke-dasharray:none;stroke-opacity:1"
         id="path4463" /></g><path
       d="m 83.25,83 17.051,0 0,-5.699 -17.051,0 0,5.699 z"
       style="fill:#009e73;fill-opacity:1;fill-rule:nonzero;stroke:none"
       id="path4465" /><g
       id="g4467"
       transform="matrix(1,0,0,-1,0,216)"><path
         d="m 83.25,133.051 17,0 0,5.648 -17,0 0,-5.648 z"
         style="fill:none;stroke:#009e73;stroke-width:0.5;stroke-linecap:butt;stroke-linejoin:miter;stroke-miterlimit:3.79999995;stroke-dasharray:none;stroke-opacity:1"
         id="path4469" /></g><path
       d="m 131.852,84.199 17.051,0 0,-6.898 -17.051,0 0,6.898 z"
       style="fill:#009e73;fill-opacity:1;fill-rule:nonzero;stroke:none"
       id="path4471" /><g
       id="g4473"
       transform="matrix(1,0,0,-1,0,216)"><path
         d="m 131.852,131.852 17,0 0,6.848 -17,0 0,-6.848 z"
         style="fill:none;stroke:#009e73;stroke-width:0.5;stroke-linecap:butt;stroke-linejoin:miter;stroke-miterlimit:3.79999995;stroke-dasharray:none;stroke-opacity:1"
         id="path4475" /></g><path
       d="m 180.398,86.402 17.051,0 0,-9.102 -17.051,0 0,9.102 z"
       style="fill:#009e73;fill-opacity:1;fill-rule:nonzero;stroke:none"
       id="path4477" /><g
       id="g4479"
       transform="matrix(1,0,0,-1,0,216)"><path
         d="m 180.398,129.648 17,0 0,9.051 -17,0 0,-9.051 z"
         style="fill:none;stroke:#009e73;stroke-width:0.5;stroke-linecap:butt;stroke-linejoin:miter;stroke-miterlimit:3.79999995;stroke-dasharray:none;stroke-opacity:1"
         id="path4481" /></g><path
       d="m 229,145.949 17.051,0 0,-68.648 -17.051,0 0,68.648 z"
       style="fill:#009e73;fill-opacity:1;fill-rule:nonzero;stroke:none"
       id="path4483" /><g
       id="g4485"
       transform="matrix(1,0,0,-1,0,216)"><path
         d="m 229,70.102 17,0 0,68.598 -17,0 0,-68.598 z"
         style="fill:none;stroke:#009e73;stroke-width:0.5;stroke-linecap:butt;stroke-linejoin:miter;stroke-miterlimit:3.79999995;stroke-dasharray:none;stroke-opacity:1"
         id="path4487" /></g><path
       d="m 277.551,145.949 17.051,0 0,-68.648 -17.051,0 0,68.648 z"
       style="fill:#009e73;fill-opacity:1;fill-rule:nonzero;stroke:none"
       id="path4489" /><g
       id="g4491"
       transform="matrix(1,0,0,-1,0,216)"><path
         d="m 277.551,70.102 17,0 0,68.598 -17,0 0,-68.598 z"
         style="fill:none;stroke:#009e73;stroke-width:0.5;stroke-linecap:butt;stroke-linejoin:miter;stroke-miterlimit:3.79999995;stroke-dasharray:none;stroke-opacity:1"
         id="path4493" /></g><g
       id="g4495"
       transform="matrix(1,0,0,-1,0,216)"><path
         d="m 48.051,28.449 262.301,0 0,110.25 -262.301,0 0,-110.25 z"
         style="fill:none;stroke:#000000;stroke-width:0.5;stroke-linecap:butt;stroke-linejoin:miter;stroke-miterlimit:3.79999995;stroke-dasharray:none;stroke-opacity:1"
         id="path4497" /></g></g></svg>